<svg version="1.1" xmlns="http://www.w3.org/2000/svg" viewBox="0 0 1011 594.4664545980341" width="1011" height="594.4664545980341">
  <!-- svg-source:excalidraw -->
  
  <defs>
    <style>
      @font-face {
        font-family: "Virgil";
        src: url("https://excalidraw.com/Virgil.woff2");
      }
      @font-face {
        font-family: "Cascadia";
        src: url("https://excalidraw.com/Cascadia.woff2");
      }
    </style>
  </defs>
  <g stroke-linecap="round" transform="translate(159 93.46153846153845) rotate(0 118 27.5)"><path d="M3.66 3.18 C3.66 3.18, 3.66 3.18, 3.66 3.18 M3.66 3.18 C3.66 3.18, 3.66 3.18, 3.66 3.18 M3.4 9.58 C4.84 6.66, 7.46 5.65, 9.3 2.79 M3.4 9.58 C4.93 7.56, 7.01 5.88, 9.3 2.79 M3.14 15.98 C6.56 11.31, 10.11 4.5, 15.6 1.64 M3.14 15.98 C6.39 11.57, 11.01 8.42, 15.6 1.64 M2.88 22.37 C6.16 15.9, 11.01 13.47, 20.59 2 M2.88 22.37 C9.12 15.79, 16.13 7.3, 20.59 2 M3.27 28.02 C7.26 22.41, 14.28 13.86, 26.23 1.6 M3.27 28.02 C10.41 18.07, 19.2 8.65, 26.23 1.6 M3.66 33.66 C13.66 20.43, 23.11 9.38, 31.22 1.96 M3.66 33.66 C10.18 26.88, 14.97 19.91, 31.22 1.96 M3.4 40.06 C18.41 24.99, 29.69 10.13, 36.86 1.57 M3.4 40.06 C10.08 31.38, 18.89 22.29, 36.86 1.57 M1.83 47.97 C12.13 33.47, 21.1 23.58, 41.85 1.93 M1.83 47.97 C17.96 29.1, 34.07 12.85, 41.85 1.93 M4.19 51.35 C17.09 37.14, 31.72 20.99, 47.49 1.53 M4.19 51.35 C20.43 33.52, 36.52 14.93, 47.49 1.53 M6.56 54.72 C17.99 41.66, 29.44 28.03, 52.48 1.89 M6.56 54.72 C21.07 38.1, 36.21 19.72, 52.48 1.89 M11.54 55.08 C31.15 34.59, 48.8 13.68, 58.12 1.5 M11.54 55.08 C29.52 34.3, 45.17 14.75, 58.12 1.5 M16.53 55.44 C26.5 45.5, 35.39 33.23, 63.11 1.86 M16.53 55.44 C32.27 36.09, 50.18 17.73, 63.11 1.86 M21.52 55.8 C36.75 36.34, 53.58 18.43, 68.75 1.47 M21.52 55.8 C37.32 38.47, 52.13 21.55, 68.75 1.47 M27.16 55.41 C40.65 38.7, 53.26 27.05, 73.74 1.83 M27.16 55.41 C41.63 37.09, 58.36 18.34, 73.74 1.83 M32.15 55.77 C51.79 33.38, 69.26 13.51, 79.38 1.43 M32.15 55.77 C44.29 40.89, 56.24 28.61, 79.38 1.43 M37.79 55.38 C54.42 37.06, 70 18.74, 84.37 1.79 M37.79 55.38 C49.19 42.87, 60.61 30.68, 84.37 1.79 M42.78 55.74 C61.17 35.63, 79.11 13.31, 90.01 1.4 M42.78 55.74 C56.55 38.74, 70.83 23.98, 90.01 1.4 M48.42 55.34 C57.92 43.14, 67.28 34.56, 95 1.76 M48.42 55.34 C65.21 36.82, 81.35 18.99, 95 1.76 M53.41 55.7 C66.87 41.15, 79.33 23.88, 100.64 1.36 M53.41 55.7 C64.36 41.89, 77.56 26.29, 100.64 1.36 M59.05 55.31 C69.61 42.74, 77.86 33.85, 105.63 1.72 M59.05 55.31 C70.59 41.51, 81.65 27.54, 105.63 1.72 M64.04 55.67 C80.04 36.06, 96.67 19.99, 110.62 2.08 M64.04 55.67 C78.21 39.12, 92.87 22.31, 110.62 2.08 M69.68 55.27 C85.2 35.74, 101.14 18.81, 116.26 1.69 M69.68 55.27 C81.86 41.93, 93.35 26.82, 116.26 1.69 M74.67 55.63 C88.09 38.64, 106.64 19.63, 121.25 2.05 M74.67 55.63 C89.83 38.59, 105.48 21.14, 121.25 2.05 M80.31 55.24 C92.25 41.04, 105.86 23.39, 126.89 1.65 M80.31 55.24 C98.37 34.12, 117.78 13.81, 126.89 1.65 M85.3 55.6 C97.79 42.86, 108.99 29.58, 131.88 2.01 M85.3 55.6 C97.22 42.66, 109.11 28.59, 131.88 2.01 M90.94 55.2 C98.97 44.76, 112.11 30.62, 137.52 1.62 M90.94 55.2 C108.69 34.95, 126.03 13.71, 137.52 1.62 M95.93 55.56 C106.09 45.92, 113.93 34.99, 142.51 1.98 M95.93 55.56 C114.54 34.28, 132.41 14.17, 142.51 1.98 M101.57 55.17 C118.24 35.55, 136.7 13.39, 148.15 1.58 M101.57 55.17 C113.37 41.28, 125.78 26.95, 148.15 1.58 M106.56 55.53 C116.21 43.46, 128.69 29.47, 153.14 1.94 M106.56 55.53 C122.38 35.72, 138.39 17.47, 153.14 1.94 M111.54 55.89 C128 36.18, 144.56 20.64, 158.78 1.55 M111.54 55.89 C129.55 34.12, 148.1 13.08, 158.78 1.55 M117.19 55.49 C135.24 33.64, 152.43 12.46, 163.77 1.91 M117.19 55.49 C128.66 44.38, 137.29 31.8, 163.77 1.91 M122.17 55.85 C138.28 39.3, 152.05 19.11, 169.41 1.51 M122.17 55.85 C135.62 42.34, 147.07 28.08, 169.41 1.51 M127.82 55.46 C141.09 42.5, 155.3 26.74, 174.4 1.87 M127.82 55.46 C139.86 41.3, 151.15 28.08, 174.4 1.87 M132.8 55.82 C143.75 43.22, 154.25 29.21, 180.04 1.48 M132.8 55.82 C143.76 44.63, 154.15 31.65, 180.04 1.48 M138.45 55.42 C153.62 37.85, 170.7 17.31, 185.03 1.84 M138.45 55.42 C156.72 35.38, 172.85 16.48, 185.03 1.84 M143.43 55.78 C156.89 38.35, 173.43 20.12, 190.67 1.45 M143.43 55.78 C162.72 35.24, 179.55 12.86, 190.67 1.45 M149.08 55.39 C166.21 33.83, 184.38 13.66, 195.66 1.81 M149.08 55.39 C159.75 43.55, 169.68 32.61, 195.66 1.81 M154.06 55.75 C167.47 41.66, 176.69 27.58, 200.64 2.17 M154.06 55.75 C170.35 36.82, 187.4 15.97, 200.64 2.17 M159.71 55.36 C176.33 35.72, 195.58 17.04, 206.29 1.77 M159.71 55.36 C176.67 35.35, 194.64 15.8, 206.29 1.77 M164.69 55.72 C175.49 44.11, 185 34.29, 211.27 2.13 M164.69 55.72 C176.87 42.69, 189.12 29.14, 211.27 2.13 M170.34 55.32 C184.04 38.96, 196.85 24.88, 216.92 1.74 M170.34 55.32 C184.81 39.22, 199.67 22.54, 216.92 1.74 M175.32 55.68 C188.69 38.97, 201.1 24.02, 221.9 2.1 M175.32 55.68 C190.45 37.89, 204.47 23.24, 221.9 2.1 M180.97 55.29 C197.18 36, 209.96 20.2, 227.55 1.7 M180.97 55.29 C199.49 33.15, 217.2 11.99, 227.55 1.7 M185.95 55.65 C194.88 43.53, 205.14 33.46, 231.22 3.57 M185.95 55.65 C197.66 43.05, 208.82 28.96, 231.22 3.57 M191.6 55.25 C209.73 36.73, 226.98 17.68, 234.9 5.44 M191.6 55.25 C206.3 38.07, 222.77 20.41, 234.9 5.44 M196.58 55.61 C209.61 42.18, 219.1 28.95, 236.6 9.58 M196.58 55.61 C210.65 39.27, 225.96 23.15, 236.6 9.58 M201.57 55.97 C212.29 44.55, 221.42 33.15, 237 15.22 M201.57 55.97 C214.81 39.96, 228.09 25.3, 237 15.22 M207.21 55.58 C220.02 43.93, 229.39 30.98, 237.39 20.86 M207.21 55.58 C218.2 41.09, 230.65 29.05, 237.39 20.86 M212.2 55.94 C216.41 47.51, 225.48 42.09, 237.13 27.26 M212.2 55.94 C218.62 49.77, 223.65 42.92, 237.13 27.26 M217.85 55.54 C224.19 46.23, 229.77 39.91, 237.53 32.9 M217.85 55.54 C223.18 50.63, 227.64 45.77, 237.53 32.9 M222.83 55.9 C225.81 49.58, 232.23 45.48, 237.27 39.3 M222.83 55.9 C226.87 50.35, 231.17 46.51, 237.27 39.3 M229.13 54.75 C231.52 52.35, 234.19 50.77, 237 45.7 M229.13 54.75 C231.52 51.83, 233.58 49.83, 237 45.7" stroke="#ced4da" stroke-width="0.5" fill="none"></path><path d="M13.75 0 M13.75 0 C65.98 2.09, 114.65 0.94, 222.25 0 M13.75 0 C89.6 -0.14, 165.28 -0.34, 222.25 0 M222.25 0 C233.39 -0.32, 234.15 6.11, 236 13.75 M222.25 0 C230.67 1.2, 234.05 2.55, 236 13.75 M236 13.75 C238.17 19.23, 235.49 27.54, 236 41.25 M236 13.75 C235.98 20.89, 236.92 26.81, 236 41.25 M236 41.25 C234.81 49.51, 230.39 53.86, 222.25 55 M236 41.25 C237.39 52.52, 233.09 52.76, 222.25 55 M222.25 55 C151.1 57.75, 80.91 55.38, 13.75 55 M222.25 55 C170.69 54.44, 119.31 55.29, 13.75 55 M13.75 55 C5.63 53.52, 0.48 48.53, 0 41.25 M13.75 55 C5.48 53.22, 1.83 49.43, 0 41.25 M0 41.25 C1.14 32.97, 1.52 22.03, 0 13.75 M0 41.25 C0.36 33.09, 0.55 26.52, 0 13.75 M0 13.75 C-1.23 5.86, 3.92 -0.72, 13.75 0 M0 13.75 C-1.38 2.38, 5.73 -1.9, 13.75 0" stroke="#000000" stroke-width="1" fill="none"></path></g><g transform="translate(207.5 109.96153846153845) rotate(0 70.5 12)"><text x="70.5" y="17" font-family="Helvetica, Segoe UI Emoji" font-size="20px" fill="#000000" text-anchor="middle" style="white-space: pre;" direction="ltr">&lt;Model "ceph"&gt;</text></g><g stroke-linecap="round" transform="translate(161.9473684210525 396.7510121457491) rotate(0 118 27.5)"><path d="M3.66 3.18 C3.66 3.18, 3.66 3.18, 3.66 3.18 M3.66 3.18 C3.66 3.18, 3.66 3.18, 3.66 3.18 M3.4 9.58 C5.89 8.05, 7.58 5.18, 9.3 2.79 M3.4 9.58 C4.78 7.74, 6.08 6.79, 9.3 2.79 M3.14 15.98 C8.84 10.31, 11.97 5.63, 15.6 1.64 M3.14 15.98 C7.92 10.32, 12.6 6.1, 15.6 1.64 M2.88 22.37 C9.8 12.68, 15.2 7.77, 20.59 2 M2.88 22.37 C8.52 16.58, 15.6 7.97, 20.59 2 M3.27 28.02 C11.57 18.02, 19.57 9.72, 26.23 1.6 M3.27 28.02 C9.07 21.45, 16.15 12.12, 26.23 1.6 M3.66 33.66 C9.13 27.27, 17.74 19.18, 31.22 1.96 M3.66 33.66 C13.43 23.31, 22.17 13.63, 31.22 1.96 M3.4 40.06 C10.55 31.8, 19.96 24, 36.86 1.57 M3.4 40.06 C11.06 30.99, 18.86 23.55, 36.86 1.57 M1.83 47.97 C10.54 38.1, 18.76 25.23, 41.85 1.93 M1.83 47.97 C14.37 34.72, 24.6 21.63, 41.85 1.93 M4.19 51.35 C18.12 35.24, 30.55 20.15, 47.49 1.53 M4.19 51.35 C19.62 33.15, 36.99 13.26, 47.49 1.53 M6.56 54.72 C16.79 44.55, 26.89 31.25, 52.48 1.89 M6.56 54.72 C16.56 41.42, 29.3 28.43, 52.48 1.89 M11.54 55.08 C28.24 33.35, 46.94 13.75, 58.12 1.5 M11.54 55.08 C22.58 44.01, 32.43 31.11, 58.12 1.5 M16.53 55.44 C28.59 42.14, 39.06 31.44, 63.11 1.86 M16.53 55.44 C28.76 42.28, 39.33 28.25, 63.11 1.86 M21.52 55.8 C33 44.26, 43.59 33.23, 68.75 1.47 M21.52 55.8 C39.94 33.48, 58.61 13.87, 68.75 1.47 M27.16 55.41 C37.56 42.64, 47.72 31.53, 73.74 1.83 M27.16 55.41 C43.54 36.35, 59.87 17.77, 73.74 1.83 M32.15 55.77 C46.98 35.7, 67.12 17.24, 79.38 1.43 M32.15 55.77 C50.73 33.81, 68.24 13.94, 79.38 1.43 M37.79 55.38 C49.7 41.03, 62.49 25.85, 84.37 1.79 M37.79 55.38 C49.36 43.54, 58.96 31.79, 84.37 1.79 M42.78 55.74 C60.92 37.63, 76.61 17.62, 90.01 1.4 M42.78 55.74 C53.37 43.81, 62.43 33.81, 90.01 1.4 M48.42 55.34 C63.71 40.63, 77.25 25.59, 95 1.76 M48.42 55.34 C64.05 38.18, 78.77 19.87, 95 1.76 M53.41 55.7 C69.43 37.28, 86.75 15.48, 100.64 1.36 M53.41 55.7 C63.03 45.74, 73.4 34.92, 100.64 1.36 M59.05 55.31 C72.64 38.17, 87.92 23.67, 105.63 1.72 M59.05 55.31 C75.22 36.04, 92.91 16.21, 105.63 1.72 M64.04 55.67 C76.85 39.12, 92.07 24.62, 110.62 2.08 M64.04 55.67 C81.85 36.46, 98.17 15.53, 110.62 2.08 M69.68 55.27 C82.79 38.65, 99.41 21.61, 116.26 1.69 M69.68 55.27 C86.59 34.29, 103.39 15.95, 116.26 1.69 M74.67 55.63 C89.03 38.43, 102.33 22.4, 121.25 2.05 M74.67 55.63 C87.56 39.39, 100.86 24.43, 121.25 2.05 M80.31 55.24 C91.85 41.15, 103.71 27.37, 126.89 1.65 M80.31 55.24 C93.48 40.34, 105.44 25.53, 126.89 1.65 M85.3 55.6 C100.85 40.13, 114 23.75, 131.88 2.01 M85.3 55.6 C102.46 37.22, 119.99 17.49, 131.88 2.01 M90.94 55.2 C107.06 37.35, 123.4 19.12, 137.52 1.62 M90.94 55.2 C106.53 36.95, 123.86 18.31, 137.52 1.62 M95.93 55.56 C106.86 43.25, 115.19 33.75, 142.51 1.98 M95.93 55.56 C111.72 36.35, 128.77 17.35, 142.51 1.98 M101.57 55.17 C116.4 38.74, 126.85 24.58, 148.15 1.58 M101.57 55.17 C116.25 38.84, 132.35 20.1, 148.15 1.58 M106.56 55.53 C121.5 39.49, 136.19 21.04, 153.14 1.94 M106.56 55.53 C121.8 39.22, 135.95 22.29, 153.14 1.94 M111.54 55.89 C126.23 38.95, 139.37 24.33, 158.78 1.55 M111.54 55.89 C122.93 43.33, 134.81 28.68, 158.78 1.55 M117.19 55.49 C133.61 35.09, 149.49 17.28, 163.77 1.91 M117.19 55.49 C126.65 45.84, 135.41 33.15, 163.77 1.91 M122.17 55.85 C133.31 39.09, 146.47 26.12, 169.41 1.51 M122.17 55.85 C136.34 39.92, 151.11 22.84, 169.41 1.51 M127.82 55.46 C143.9 36.93, 165.8 13.7, 174.4 1.87 M127.82 55.46 C140.58 40.4, 153.64 24.57, 174.4 1.87 M132.8 55.82 C149.85 33.16, 170.81 11.45, 180.04 1.48 M132.8 55.82 C148.83 36.09, 166.42 16.63, 180.04 1.48 M138.45 55.42 C154.12 36.06, 171.23 20.75, 185.03 1.84 M138.45 55.42 C153.79 36.88, 170.07 19.42, 185.03 1.84 M143.43 55.78 C160.71 33.78, 180.32 10.75, 190.67 1.45 M143.43 55.78 C161.45 34.65, 179.44 13.9, 190.67 1.45 M149.08 55.39 C160.61 40.79, 175.51 27.72, 195.66 1.81 M149.08 55.39 C160.36 42.3, 172.9 29.93, 195.66 1.81 M154.06 55.75 C164.58 45.01, 173.78 35.45, 200.64 2.17 M154.06 55.75 C166.44 41.21, 177.46 28.56, 200.64 2.17 M159.71 55.36 C175.09 39.94, 187.5 24.78, 206.29 1.77 M159.71 55.36 C176.96 35.11, 194.54 14.61, 206.29 1.77 M164.69 55.72 C179.87 37.22, 198.05 18.75, 211.27 2.13 M164.69 55.72 C183.3 36.74, 199.35 15.9, 211.27 2.13 M170.34 55.32 C182.04 44.07, 191.14 30.88, 216.92 1.74 M170.34 55.32 C181.7 41, 193.18 29.14, 216.92 1.74 M175.32 55.68 C190.17 37.4, 205.5 21.24, 221.9 2.1 M175.32 55.68 C184.15 42.89, 194.24 32.65, 221.9 2.1 M180.97 55.29 C200.26 32.68, 219.1 12.83, 227.55 1.7 M180.97 55.29 C191.79 43.69, 202.35 30.62, 227.55 1.7 M185.95 55.65 C199.03 41.94, 212.03 25.24, 231.22 3.57 M185.95 55.65 C195.46 45.83, 203.78 35.54, 231.22 3.57 M191.6 55.25 C202.4 42.19, 211.57 34.37, 234.9 5.44 M191.6 55.25 C200.53 43.84, 211.89 32.46, 234.9 5.44 M196.58 55.61 C207.82 42.83, 222.5 25.63, 236.6 9.58 M196.58 55.61 C206.94 44.68, 215.41 35.2, 236.6 9.58 M201.57 55.97 C216.66 38.31, 230.62 26.05, 237 15.22 M201.57 55.97 C211.61 44.77, 220.95 33.09, 237 15.22 M207.21 55.58 C214.84 46.63, 225.95 33.93, 237.39 20.86 M207.21 55.58 C217.58 44, 226.1 32.85, 237.39 20.86 M212.2 55.94 C219.54 47.7, 228.4 37.21, 237.13 27.26 M212.2 55.94 C218.28 48.67, 225.69 40.7, 237.13 27.26 M217.85 55.54 C226.22 45.41, 231.75 37.42, 237.53 32.9 M217.85 55.54 C224.63 46.61, 233.26 38.03, 237.53 32.9 M222.83 55.9 C225.52 51.07, 228.11 49.11, 237.27 39.3 M222.83 55.9 C225.95 51.39, 229.71 47.09, 237.27 39.3 M229.13 54.75 C231.1 50.02, 235.9 46.45, 237 45.7 M229.13 54.75 C231.39 52.86, 232.49 50.28, 237 45.7" stroke="#15aabf" stroke-width="0.5" fill="none"></path><path d="M13.75 0 M13.75 0 C57.79 -0.37, 106.66 -0.26, 222.25 0 M13.75 0 C82.54 1.43, 151.35 1.49, 222.25 0 M222.25 0 C230.44 -0.33, 234.4 3.95, 236 13.75 M222.25 0 C230.4 -1.62, 235.17 3.17, 236 13.75 M236 13.75 C235.63 21.51, 234.81 26.99, 236 41.25 M236 13.75 C236.48 20.7, 235.57 28.61, 236 41.25 M236 41.25 C234.64 51.98, 231.36 56.67, 222.25 55 M236 41.25 C236.7 50.75, 229.59 53.64, 222.25 55 M222.25 55 C160.76 56.31, 98.46 55.13, 13.75 55 M222.25 55 C149.01 56.16, 73.95 56.3, 13.75 55 M13.75 55 C3.51 53.25, -0.28 50.12, 0 41.25 M13.75 55 C6.25 53.84, -0.22 49.49, 0 41.25 M0 41.25 C-0.42 31.71, 1.7 20.08, 0 13.75 M0 41.25 C0.54 32.54, -0.03 24.89, 0 13.75 M0 13.75 C-0.18 3.04, 5.09 1.99, 13.75 0 M0 13.75 C0.03 2.53, 2.54 1.96, 13.75 0" stroke="#000000" stroke-width="1" fill="none"></path></g><g transform="translate(209.9473684210525 413.2510121457491) rotate(0 71 12)"><text x="71" y="17" font-family="Helvetica, Segoe UI Emoji" font-size="20px" fill="#000000" text-anchor="middle" style="white-space: pre;" direction="ltr">Availability zone</text></g><g stroke-linecap="round" transform="translate(158.26518218623505 192.24190283400793) rotate(0 118 27.5)"><path d="M3.66 3.18 C3.66 3.18, 3.66 3.18, 3.66 3.18 M3.66 3.18 C3.66 3.18, 3.66 3.18, 3.66 3.18 M3.4 9.58 C4.93 7.4, 6.95 4.65, 9.3 2.79 M3.4 9.58 C5.51 7.47, 7.96 4.55, 9.3 2.79 M3.14 15.98 C5.84 13.6, 10.58 6.88, 15.6 1.64 M3.14 15.98 C6.62 12.26, 10.69 7.64, 15.6 1.64 M2.88 22.37 C5.69 16.33, 11.58 13.11, 20.59 2 M2.88 22.37 C6.8 18.09, 10.84 13.77, 20.59 2 M3.27 28.02 C12.18 17.66, 20.5 9.51, 26.23 1.6 M3.27 28.02 C10.6 20.34, 17.98 11.66, 26.23 1.6 M3.66 33.66 C10.73 26.15, 14.61 18.18, 31.22 1.96 M3.66 33.66 C15.17 20.7, 25.73 7.97, 31.22 1.96 M3.4 40.06 C13.56 27.08, 28.12 11.94, 36.86 1.57 M3.4 40.06 C13 28.42, 23.69 16.59, 36.86 1.57 M1.83 47.97 C15.04 28.98, 33.05 15.43, 41.85 1.93 M1.83 47.97 C10.51 37.45, 20.63 25.45, 41.85 1.93 M4.19 51.35 C15.72 39.51, 24.25 26.39, 47.49 1.53 M4.19 51.35 C16.42 37.75, 27.36 23.12, 47.49 1.53 M6.56 54.72 C22.56 36.67, 37.86 19.18, 52.48 1.89 M6.56 54.72 C16.74 41.84, 29.55 28.42, 52.48 1.89 M11.54 55.08 C28.79 36.79, 46.28 16.34, 58.12 1.5 M11.54 55.08 C24.23 42.42, 34.43 27.98, 58.12 1.5 M16.53 55.44 C28.39 41.03, 43.15 28.07, 63.11 1.86 M16.53 55.44 C24.69 45.01, 35.88 32.9, 63.11 1.86 M21.52 55.8 C35.77 38.94, 49.1 23.55, 68.75 1.47 M21.52 55.8 C37.47 38.78, 51.68 21.41, 68.75 1.47 M27.16 55.41 C36.62 42, 46.92 30.77, 73.74 1.83 M27.16 55.41 C38.03 43.64, 47.83 30.66, 73.74 1.83 M32.15 55.77 C52.3 34.37, 71.02 14.17, 79.38 1.43 M32.15 55.77 C44.73 39.17, 58.83 24.44, 79.38 1.43 M37.79 55.38 C46.99 45.06, 56.87 31.7, 84.37 1.79 M37.79 55.38 C51.86 37.6, 67.77 20.72, 84.37 1.79 M42.78 55.74 C52.62 42.92, 62.9 33.56, 90.01 1.4 M42.78 55.74 C54.92 41.7, 67.92 25.71, 90.01 1.4 M48.42 55.34 C59.86 41.53, 68.85 29.72, 95 1.76 M48.42 55.34 C66.59 35.62, 84.86 14.18, 95 1.76 M53.41 55.7 C68.21 38.78, 83.52 19.73, 100.64 1.36 M53.41 55.7 C66.78 39.75, 80.25 24.44, 100.64 1.36 M59.05 55.31 C71.01 42.72, 81.8 28, 105.63 1.72 M59.05 55.31 C72.1 41.12, 83.36 27.84, 105.63 1.72 M64.04 55.67 C76.09 43.86, 85.51 29.24, 110.62 2.08 M64.04 55.67 C75.54 42.34, 87.02 28.75, 110.62 2.08 M69.68 55.27 C84.39 41.39, 94.57 23.48, 116.26 1.69 M69.68 55.27 C81.81 41.75, 94.66 27.6, 116.26 1.69 M74.67 55.63 C87.22 38.48, 101.37 25.46, 121.25 2.05 M74.67 55.63 C92.31 35.97, 110.19 15.12, 121.25 2.05 M80.31 55.24 C92.46 39.44, 110.2 22.6, 126.89 1.65 M80.31 55.24 C91.2 43.36, 101.19 32.04, 126.89 1.65 M85.3 55.6 C95.79 42.95, 105.88 33.03, 131.88 2.01 M85.3 55.6 C97.31 43.5, 107.91 32.28, 131.88 2.01 M90.94 55.2 C103.85 38.1, 119.64 23.47, 137.52 1.62 M90.94 55.2 C102.91 40.65, 114.81 28.15, 137.52 1.62 M95.93 55.56 C110.79 36.75, 128.5 15.73, 142.51 1.98 M95.93 55.56 C105.91 42.66, 117.9 31.01, 142.51 1.98 M101.57 55.17 C112.46 44.71, 122.81 30.6, 148.15 1.58 M101.57 55.17 C111.85 41.83, 123.99 28.18, 148.15 1.58 M106.56 55.53 C115.07 44.07, 126.97 33.23, 153.14 1.94 M106.56 55.53 C122.73 37.94, 138.12 19.33, 153.14 1.94 M111.54 55.89 C120.42 42.82, 133 30.21, 158.78 1.55 M111.54 55.89 C126.9 38.68, 141.62 19.31, 158.78 1.55 M117.19 55.49 C132.38 39.11, 146.25 25.93, 163.77 1.91 M117.19 55.49 C125.46 44.28, 135.94 33.41, 163.77 1.91 M122.17 55.85 C138.3 38.1, 149.98 22.13, 169.41 1.51 M122.17 55.85 C140.41 36.69, 157.78 16.87, 169.41 1.51 M127.82 55.46 C142.47 41.02, 153.73 22.44, 174.4 1.87 M127.82 55.46 C146.14 34.61, 163.27 14.9, 174.4 1.87 M132.8 55.82 C149.36 37.36, 170.25 15.23, 180.04 1.48 M132.8 55.82 C147.13 39.75, 162.43 22.27, 180.04 1.48 M138.45 55.42 C152.22 36.7, 170.27 17.99, 185.03 1.84 M138.45 55.42 C154.74 36.78, 171 18.94, 185.03 1.84 M143.43 55.78 C163.76 35.99, 180.79 11.51, 190.67 1.45 M143.43 55.78 C153.5 42.99, 166.07 30.59, 190.67 1.45 M149.08 55.39 C161.24 42.12, 175.84 23.94, 195.66 1.81 M149.08 55.39 C162.1 41.61, 173.82 25.83, 195.66 1.81 M154.06 55.75 C168.69 37.86, 181.1 21.98, 200.64 2.17 M154.06 55.75 C167.62 39.67, 183.69 21.47, 200.64 2.17 M159.71 55.36 C171.99 43.73, 182.32 27.74, 206.29 1.77 M159.71 55.36 C170.53 43.26, 179.49 30.22, 206.29 1.77 M164.69 55.72 C176.86 42.54, 186.01 30.09, 211.27 2.13 M164.69 55.72 C176 43.42, 186.03 31, 211.27 2.13 M170.34 55.32 C182.06 39.28, 196.41 24.47, 216.92 1.74 M170.34 55.32 C179.31 44.55, 188.38 32.41, 216.92 1.74 M175.32 55.68 C188.36 38.74, 204.64 21.68, 221.9 2.1 M175.32 55.68 C194.54 36.09, 211.71 14.13, 221.9 2.1 M180.97 55.29 C194.08 40.27, 208.22 26.04, 227.55 1.7 M180.97 55.29 C195.26 40.1, 207.36 22.86, 227.55 1.7 M185.95 55.65 C197.86 42.8, 209.7 28.05, 231.22 3.57 M185.95 55.65 C198.23 41.3, 208.62 29.65, 231.22 3.57 M191.6 55.25 C205.35 40.16, 214.64 25.01, 234.9 5.44 M191.6 55.25 C203.73 39.94, 217.17 26.25, 234.9 5.44 M196.58 55.61 C210.33 37.6, 226.77 20.5, 236.6 9.58 M196.58 55.61 C206.12 43.77, 216.63 33.27, 236.6 9.58 M201.57 55.97 C215.25 38.55, 229.79 25.02, 237 15.22 M201.57 55.97 C211.91 43.44, 223.11 31.71, 237 15.22 M207.21 55.58 C217.64 42.49, 229.76 29.36, 237.39 20.86 M207.21 55.58 C215.98 45.64, 223.35 36.51, 237.39 20.86 M212.2 55.94 C219.11 51.12, 223.68 43.72, 237.13 27.26 M212.2 55.94 C219.59 44.97, 229.14 35.88, 237.13 27.26 M217.85 55.54 C225.75 49.53, 230.42 38.93, 237.53 32.9 M217.85 55.54 C224.91 48.47, 230.96 40.32, 237.53 32.9 M222.83 55.9 C227.69 51.29, 228.07 46.19, 237.27 39.3 M222.83 55.9 C226.85 50.86, 231.94 45.16, 237.27 39.3 M229.13 54.75 C231.33 53.05, 232.61 51.49, 237 45.7 M229.13 54.75 C232.54 51.12, 235.46 47.92, 237 45.7" stroke="#ced4da" stroke-width="0.5" fill="none"></path><path d="M13.75 0 M13.75 0 C70.13 1.73, 131.65 1.3, 222.25 0 M13.75 0 C69.06 1.15, 122.51 1.23, 222.25 0 M222.25 0 C230.26 1.88, 237.26 3.41, 236 13.75 M222.25 0 C233.39 -0.03, 234.49 2.45, 236 13.75 M236 13.75 C234.28 23.81, 235 34.92, 236 41.25 M236 13.75 C235.26 23.65, 236.52 34.42, 236 41.25 M236 41.25 C235.08 51.51, 232.89 56.86, 222.25 55 M236 41.25 C235.29 49.98, 231.93 56.89, 222.25 55 M222.25 55 C143.14 55.11, 65.86 57.42, 13.75 55 M222.25 55 C140.94 54.32, 59.69 53.12, 13.75 55 M13.75 55 C4.53 54.96, 0.35 49.18, 0 41.25 M13.75 55 C6.68 54.02, -0.71 51.13, 0 41.25 M0 41.25 C-1.29 33.43, -0.08 25.09, 0 13.75 M0 41.25 C-0.07 34.37, -0.84 28.57, 0 13.75 M0 13.75 C-1.8 6.23, 3.61 -1.04, 13.75 0 M0 13.75 C-0.87 6.35, 4.08 -1.35, 13.75 0" stroke="#000000" stroke-width="1" fill="none"></path></g><g transform="translate(185.26518218623505 208.74190283400793) rotate(0 92 12)"><text x="92" y="17" font-family="Helvetica, Segoe UI Emoji" font-size="20px" fill="#000000" text-anchor="middle" style="white-space: pre;" direction="ltr">&lt;Unit "ceph-mon/0"&gt;</text></g><g transform="translate(208.92307692307713 165.49190283400793) rotate(0 67 9.5)"><text x="67" y="13" font-family="Helvetica, Segoe UI Emoji" font-size="16px" fill="#000000" text-anchor="middle" style="white-space: pre;" direction="ltr">get unit via relation</text></g><g stroke-linecap="round" transform="translate(10 10) rotate(0 232.80769230769238 25.42307692307692)"><path d="M3.38 2.94 C3.38 2.94, 3.38 2.94, 3.38 2.94 M3.38 2.94 C3.38 2.94, 3.38 2.94, 3.38 2.94 M-0.16 13.11 C3.24 9.2, 6.64 5.29, 9.03 2.55 M-0.16 13.11 C2.05 10.58, 4.25 8.04, 9.03 2.55 M0.24 18.76 C4.8 13.51, 9.36 8.26, 14.67 2.15 M0.24 18.76 C4.37 14.01, 8.5 9.25, 14.67 2.15 M-0.03 25.15 C6.05 18.16, 12.13 11.17, 20.31 1.76 M-0.03 25.15 C4.59 19.84, 9.21 14.53, 20.31 1.76 M0.37 30.8 C10.08 19.63, 19.78 8.47, 25.3 2.12 M0.37 30.8 C6.53 23.71, 12.68 16.63, 25.3 2.12 M0.11 37.19 C10.2 25.59, 20.28 13.98, 30.94 1.72 M0.11 37.19 C7.94 28.18, 15.78 19.17, 30.94 1.72 M2.47 40.57 C10.29 31.57, 18.12 22.58, 35.93 2.08 M2.47 40.57 C14.82 26.37, 27.17 12.16, 35.93 2.08 M3.52 45.46 C15.88 31.25, 28.23 17.04, 41.57 1.69 M3.52 45.46 C11.6 36.17, 19.67 26.88, 41.57 1.69 M5.23 49.6 C14.41 39.04, 23.59 28.47, 46.56 2.05 M5.23 49.6 C21.38 31.02, 37.53 12.44, 46.56 2.05 M8.9 51.46 C20.48 38.15, 32.05 24.84, 52.2 1.65 M8.9 51.46 C25.64 32.21, 42.38 12.95, 52.2 1.65 M12.58 53.33 C22.98 41.36, 33.39 29.39, 57.19 2.01 M12.58 53.33 C23.45 40.82, 34.33 28.31, 57.19 2.01 M18.22 52.94 C28.8 40.77, 39.38 28.6, 62.83 1.62 M18.22 52.94 C29.64 39.8, 41.06 26.67, 62.83 1.62 M23.21 53.3 C34.47 40.34, 45.74 27.38, 67.82 1.98 M23.21 53.3 C34.54 40.27, 45.86 27.24, 67.82 1.98 M28.85 52.91 C38.78 41.49, 48.7 30.07, 73.46 1.59 M28.85 52.91 C41.92 37.87, 54.99 22.83, 73.46 1.59 M33.84 53.27 C50.41 34.2, 66.98 15.14, 78.45 1.95 M33.84 53.27 C49.03 35.79, 64.23 18.3, 78.45 1.95 M39.48 52.87 C53.67 36.55, 67.86 20.22, 84.09 1.55 M39.48 52.87 C55.72 34.2, 71.95 15.52, 84.09 1.55 M44.47 53.23 C61.76 33.33, 79.06 13.44, 89.08 1.91 M44.47 53.23 C54.15 42.09, 63.83 30.96, 89.08 1.91 M49.46 53.59 C63.94 36.93, 78.43 20.26, 94.07 2.27 M49.46 53.59 C64.12 36.72, 78.79 19.85, 94.07 2.27 M55.1 53.2 C64.26 42.66, 73.42 32.12, 99.71 1.88 M55.1 53.2 C72.5 33.18, 89.9 13.16, 99.71 1.88 M60.09 53.56 C75.68 35.61, 91.28 17.67, 104.7 2.24 M60.09 53.56 C70.86 41.17, 81.63 28.78, 104.7 2.24 M65.73 53.16 C76.19 41.12, 86.66 29.09, 110.34 1.84 M65.73 53.16 C81.81 34.66, 97.89 16.16, 110.34 1.84 M70.72 53.52 C79.91 42.94, 89.11 32.37, 115.33 2.2 M70.72 53.52 C86.3 35.59, 101.89 17.66, 115.33 2.2 M76.36 53.13 C93.84 33.01, 111.33 12.9, 120.97 1.81 M76.36 53.13 C86.29 41.7, 96.22 30.27, 120.97 1.81 M81.35 53.49 C90.88 42.51, 100.42 31.54, 125.96 2.17 M81.35 53.49 C94.46 38.4, 107.58 23.3, 125.96 2.17 M86.99 53.09 C100.38 37.69, 113.77 22.28, 131.6 1.77 M86.99 53.09 C98.8 39.5, 110.61 25.92, 131.6 1.77 M91.98 53.45 C109.76 33, 127.54 12.54, 136.59 2.13 M91.98 53.45 C105.82 37.52, 119.67 21.59, 136.59 2.13 M97.62 53.06 C110.48 38.26, 123.34 23.47, 142.23 1.74 M97.62 53.06 C114.07 34.13, 130.52 15.21, 142.23 1.74 M102.61 53.42 C115.66 38.4, 128.72 23.38, 147.22 2.1 M102.61 53.42 C112.74 41.76, 122.88 30.09, 147.22 2.1 M108.25 53.02 C125.72 32.93, 143.19 12.83, 152.86 1.7 M108.25 53.02 C117.63 42.23, 127.02 31.43, 152.86 1.7 M113.24 53.38 C128.15 36.23, 143.06 19.07, 157.85 2.06 M113.24 53.38 C125.16 39.67, 137.08 25.96, 157.85 2.06 M118.88 52.99 C134.56 34.95, 150.24 16.91, 163.49 1.67 M118.88 52.99 C130.43 39.7, 141.98 26.41, 163.49 1.67 M123.87 53.35 C135.83 39.59, 147.79 25.83, 168.48 2.03 M123.87 53.35 C134.86 40.7, 145.86 28.05, 168.48 2.03 M129.51 52.95 C139.14 41.88, 148.76 30.8, 174.12 1.63 M129.51 52.95 C146.36 33.57, 163.21 14.18, 174.12 1.63 M134.5 53.32 C149.89 35.6, 165.29 17.89, 179.11 1.99 M134.5 53.32 C151.24 34.06, 167.98 14.8, 179.11 1.99 M140.14 52.92 C155.24 35.55, 170.34 18.17, 184.75 1.6 M140.14 52.92 C150.12 41.44, 160.09 29.97, 184.75 1.6 M145.13 53.28 C159.51 36.73, 173.89 20.19, 189.74 1.96 M145.13 53.28 C156.6 40.08, 168.08 26.88, 189.74 1.96 M150.11 53.64 C167.06 34.14, 184.01 14.65, 194.73 2.32 M150.11 53.64 C161.15 40.95, 172.18 28.25, 194.73 2.32 M155.76 53.25 C167.5 39.74, 179.25 26.22, 200.37 1.93 M155.76 53.25 C168.69 38.36, 181.63 23.48, 200.37 1.93 M160.74 53.61 C174.41 37.88, 188.08 22.16, 205.36 2.29 M160.74 53.61 C173.83 38.55, 186.91 23.5, 205.36 2.29 M166.39 53.21 C181.44 35.9, 196.49 18.58, 211 1.89 M166.39 53.21 C178.2 39.62, 190.02 26.02, 211 1.89 M171.37 53.57 C188.81 33.51, 206.25 13.45, 215.99 2.25 M171.37 53.57 C189.2 33.06, 207.03 12.55, 215.99 2.25 M177.02 53.18 C186.86 41.85, 196.7 30.53, 221.63 1.86 M177.02 53.18 C193.39 34.34, 209.76 15.51, 221.63 1.86 M182 53.54 C191.47 42.65, 200.94 31.76, 226.62 2.22 M182 53.54 C199.78 33.09, 217.55 12.65, 226.62 2.22 M187.65 53.14 C200.81 38, 213.98 22.85, 232.26 1.82 M187.65 53.14 C204.38 33.9, 221.11 14.65, 232.26 1.82 M192.63 53.5 C204.04 40.38, 215.45 27.26, 237.25 2.18 M192.63 53.5 C206.69 37.33, 220.75 21.16, 237.25 2.18 M198.28 53.11 C209.4 40.31, 220.52 27.52, 242.89 1.79 M198.28 53.11 C209.95 39.68, 221.62 26.26, 242.89 1.79 M203.26 53.47 C217.22 37.41, 231.18 21.35, 247.88 2.15 M203.26 53.47 C219.74 34.51, 236.22 15.55, 247.88 2.15 M208.91 53.07 C221.3 38.82, 233.69 24.57, 253.52 1.75 M208.91 53.07 C226.44 32.9, 243.98 12.73, 253.52 1.75 M213.89 53.43 C226.45 38.99, 239.01 24.54, 258.51 2.11 M213.89 53.43 C230.59 34.23, 247.29 15.02, 258.51 2.11 M219.54 53.04 C232.09 38.6, 244.64 24.17, 264.15 1.72 M219.54 53.04 C234.23 36.13, 248.93 19.23, 264.15 1.72 M224.52 53.4 C240.83 34.64, 257.14 15.88, 269.14 2.08 M224.52 53.4 C239.55 36.12, 254.57 18.83, 269.14 2.08 M230.17 53 C242.08 39.29, 254 25.58, 274.78 1.68 M230.17 53 C240.18 41.49, 250.19 29.97, 274.78 1.68 M235.15 53.36 C247.44 39.23, 259.72 25.11, 279.77 2.04 M235.15 53.36 C246.64 40.15, 258.13 26.93, 279.77 2.04 M240.8 52.97 C256.35 35.08, 271.9 17.18, 285.41 1.65 M240.8 52.97 C250.87 41.38, 260.94 29.8, 285.41 1.65 M245.78 53.33 C255.92 41.67, 266.06 30, 290.4 2.01 M245.78 53.33 C260.55 36.34, 275.32 19.35, 290.4 2.01 M250.77 53.69 C266.18 35.96, 281.59 18.23, 295.38 2.37 M250.77 53.69 C263.03 39.59, 275.28 25.5, 295.38 2.37 M256.41 53.3 C271.77 35.64, 287.12 17.97, 301.03 1.98 M256.41 53.3 C271.82 35.57, 287.23 17.85, 301.03 1.98 M261.4 53.66 C278.5 33.98, 295.61 14.31, 306.01 2.34 M261.4 53.66 C275.06 37.94, 288.73 22.22, 306.01 2.34 M267.04 53.26 C278.42 40.18, 289.79 27.09, 311.66 1.94 M267.04 53.26 C279.65 38.76, 292.26 24.26, 311.66 1.94 M272.03 53.62 C285.18 38.5, 298.32 23.38, 316.64 2.3 M272.03 53.62 C283.15 40.83, 294.27 28.04, 316.64 2.3 M277.67 53.23 C290.83 38.09, 303.99 22.95, 322.29 1.91 M277.67 53.23 C291.87 36.89, 306.07 20.56, 322.29 1.91 M282.66 53.59 C292.37 42.42, 302.07 31.26, 327.27 2.27 M282.66 53.59 C292.76 41.98, 302.85 30.36, 327.27 2.27 M288.3 53.19 C301.94 37.5, 315.58 21.82, 332.92 1.87 M288.3 53.19 C298.2 41.8, 308.1 30.41, 332.92 1.87 M293.29 53.55 C310.99 33.19, 328.69 12.83, 337.9 2.23 M293.29 53.55 C309.07 35.41, 324.84 17.26, 337.9 2.23 M298.93 53.16 C309.41 41.1, 319.89 29.05, 343.55 1.84 M298.93 53.16 C314.85 34.85, 330.76 16.55, 343.55 1.84 M303.92 53.52 C321.01 33.85, 338.11 14.19, 348.53 2.2 M303.92 53.52 C319.15 36, 334.37 18.49, 348.53 2.2 M309.56 53.12 C324.58 35.85, 339.59 18.58, 354.18 1.8 M309.56 53.12 C322.03 38.78, 334.5 24.43, 354.18 1.8 M314.55 53.48 C324.98 41.48, 335.42 29.48, 359.16 2.16 M314.55 53.48 C327.63 38.44, 340.71 23.39, 359.16 2.16 M320.19 53.09 C336.74 34.06, 353.28 15.02, 364.81 1.77 M320.19 53.09 C335.41 35.58, 350.63 18.08, 364.81 1.77 M325.18 53.45 C339.11 37.42, 353.04 21.4, 369.79 2.13 M325.18 53.45 C338.87 37.7, 352.55 21.96, 369.79 2.13 M330.82 53.05 C339.94 42.56, 349.07 32.07, 375.44 1.73 M330.82 53.05 C343.58 38.38, 356.33 23.72, 375.44 1.73 M335.81 53.41 C348.66 38.64, 361.5 23.86, 380.42 2.09 M335.81 53.41 C348.01 39.38, 360.21 25.35, 380.42 2.09 M341.45 53.02 C350.82 42.24, 360.19 31.47, 386.07 1.7 M341.45 53.02 C352.69 40.09, 363.93 27.16, 386.07 1.7 M346.44 53.38 C361.47 36.09, 376.5 18.8, 391.05 2.06 M346.44 53.38 C358.85 39.1, 371.27 24.82, 391.05 2.06 M351.43 53.74 C363.32 40.06, 375.21 26.38, 396.04 2.42 M351.43 53.74 C368 34.68, 384.56 15.62, 396.04 2.42 M357.07 53.35 C372.29 35.84, 387.5 18.34, 401.68 2.03 M357.07 53.35 C374.91 32.82, 392.76 12.3, 401.68 2.03 M362.06 53.71 C378.09 35.27, 394.12 16.83, 406.67 2.39 M362.06 53.71 C378.55 34.73, 395.05 15.76, 406.67 2.39 M367.7 53.31 C380.6 38.48, 393.49 23.65, 412.31 1.99 M367.7 53.31 C381.58 37.34, 395.46 21.38, 412.31 1.99 M372.69 53.67 C389.63 34.18, 406.57 14.69, 417.3 2.35 M372.69 53.67 C389.04 34.86, 405.39 16.05, 417.3 2.35 M378.33 53.28 C390.61 39.15, 402.89 25.02, 422.94 1.96 M378.33 53.28 C390.74 39.01, 403.14 24.73, 422.94 1.96 M383.32 53.64 C397.85 36.92, 412.39 20.2, 427.93 2.32 M383.32 53.64 C395.58 39.53, 407.85 25.42, 427.93 2.32 M388.96 53.24 C402.38 37.81, 415.8 22.37, 433.57 1.92 M388.96 53.24 C405.06 34.72, 421.16 16.2, 433.57 1.92 M393.95 53.6 C407.39 38.14, 420.83 22.68, 438.56 2.28 M393.95 53.6 C402.95 43.24, 411.96 32.89, 438.56 2.28 M399.59 53.21 C411.75 39.22, 423.91 25.23, 444.2 1.89 M399.59 53.21 C409.11 42.26, 418.63 31.31, 444.2 1.89 M404.58 53.57 C418.7 37.33, 432.82 21.08, 449.19 2.25 M404.58 53.57 C415.64 40.84, 426.7 28.12, 449.19 2.25 M410.22 53.17 C419.59 42.39, 428.97 31.61, 456.15 0.34 M410.22 53.17 C423.22 38.22, 436.21 23.27, 456.15 0.34 M415.21 53.53 C428.25 38.54, 441.28 23.54, 460.48 1.46 M415.21 53.53 C429.14 37.51, 443.07 21.48, 460.48 1.46 M420.85 53.14 C430.02 42.59, 439.18 32.05, 463.5 4.08 M420.85 53.14 C429.86 42.78, 438.86 32.42, 463.5 4.08 M425.84 53.5 C435.38 42.52, 444.93 31.54, 465.86 7.46 M425.84 53.5 C436.62 41.1, 447.4 28.7, 465.86 7.46 M431.48 53.1 C442.99 39.86, 454.5 26.62, 466.25 13.1 M431.48 53.1 C439.58 43.79, 447.68 34.47, 466.25 13.1 M436.47 53.46 C445.24 43.38, 454 33.29, 465.99 19.5 M436.47 53.46 C442.81 46.17, 449.15 38.88, 465.99 19.5 M442.11 53.07 C449.02 45.12, 455.92 37.18, 466.39 25.15 M442.11 53.07 C451.27 42.54, 460.42 32.01, 466.39 25.15 M447.1 53.43 C452.78 46.89, 458.47 40.35, 466.13 31.54 M447.1 53.43 C451.28 48.62, 455.45 43.82, 466.13 31.54 M454.05 51.53 C457.76 47.26, 461.46 43, 465.86 37.94 M454.05 51.53 C457.2 47.91, 460.34 44.29, 465.86 37.94" stroke="#228be6" stroke-width="0.5" fill="none"></path><path d="M12.71 0 M12.71 0 C182.29 0, 351.87 0, 452.9 0 M12.71 0 C168.2 0, 323.69 0, 452.9 0 M452.9 0 C461.38 0, 465.62 4.24, 465.62 12.71 M452.9 0 C461.38 0, 465.62 4.24, 465.62 12.71 M465.62 12.71 C465.62 21.13, 465.62 29.54, 465.62 38.13 M465.62 12.71 C465.62 19.45, 465.62 26.2, 465.62 38.13 M465.62 38.13 C465.62 46.61, 461.38 50.85, 452.9 50.85 M465.62 38.13 C465.62 46.61, 461.38 50.85, 452.9 50.85 M452.9 50.85 C342.78 50.85, 232.66 50.85, 12.71 50.85 M452.9 50.85 C349.38 50.85, 245.85 50.85, 12.71 50.85 M12.71 50.85 C4.24 50.85, 0 46.61, 0 38.13 M12.71 50.85 C4.24 50.85, 0 46.61, 0 38.13 M0 38.13 C0 30.95, 0 23.76, 0 12.71 M0 38.13 C0 30.47, 0 22.8, 0 12.71 M0 12.71 C0 4.24, 4.24 0, 12.71 0 M0 12.71 C0 4.24, 4.24 0, 12.71 0" stroke="#000000" stroke-width="1" fill="none"></path></g><g transform="translate(24.5 23.423076923076906) rotate(0 220.5 12)"><text x="220.5" y="17" font-family="Helvetica, Segoe UI Emoji" font-size="20px" fill="#000000" text-anchor="middle" style="white-space: pre;" direction="ltr">juju-verify reboot --units ceph-osd/0  --model ceph</text></g><g stroke-linecap="round"><g transform="translate(99.45493725302413 62.630229419703085) rotate(0 29.272531373487936 20.502451808633907)"><path d="M0 0 C9.76 6.83, 48.79 34.17, 58.55 41 M0 0 C9.76 6.83, 48.79 34.17, 58.55 41" stroke="#000000" stroke-width="1" fill="none"></path></g><g transform="translate(99.45493725302413 62.630229419703085) rotate(0 29.272531373487936 20.502451808633907)"><path d="M29.57 33.24 C39.47 35.89, 49.37 38.55, 58.55 41 M29.57 33.24 C39.51 35.9, 49.46 38.57, 58.55 41" stroke="#000000" stroke-width="1" fill="none"></path></g><g transform="translate(99.45493725302413 62.630229419703085) rotate(0 29.272531373487936 20.502451808633907)"><path d="M41.34 16.43 C47.22 24.83, 53.1 33.23, 58.55 41 M41.34 16.43 C47.25 24.86, 53.15 33.3, 58.55 41" stroke="#000000" stroke-width="1" fill="none"></path></g></g><g stroke-linecap="round" transform="translate(543.2564102564097 357.5622710622713) rotate(0 228.87179487179515 36.730769230769226)"><path d="M4.89 4.25 C4.89 4.25, 4.89 4.25, 4.89 4.25 M4.89 4.25 C4.89 4.25, 4.89 4.25, 4.89 4.25 M3.31 12.16 C5.86 8.6, 7.34 7.21, 11.84 2.35 M3.31 12.16 C6.44 8.08, 10.25 4.76, 11.84 2.35 M1.74 20.06 C6.59 11.18, 14.1 4.37, 18.8 0.44 M1.74 20.06 C7.31 11.68, 15.16 4.36, 18.8 0.44 M2.14 25.71 C9.92 18.33, 18.17 8.57, 24.44 0.05 M2.14 25.71 C10.72 15.92, 17.95 7.18, 24.44 0.05 M1.87 32.1 C9.24 25.48, 16.61 17.99, 29.43 0.41 M1.87 32.1 C10.22 24.03, 16.62 14.49, 29.43 0.41 M2.27 37.75 C13.66 24.59, 21.27 15.01, 34.42 0.77 M2.27 37.75 C11.03 27.86, 19.99 17.95, 34.42 0.77 M2.66 43.39 C10.7 31.87, 22.35 20.22, 40.06 0.37 M2.66 43.39 C15.1 29.2, 29.71 13.34, 40.06 0.37 M2.4 49.79 C16.64 29.54, 32.61 12.39, 45.05 0.73 M2.4 49.79 C14.2 37.45, 23.99 24.96, 45.05 0.73 M2.8 55.43 C21.2 34.64, 37.8 16.04, 50.69 0.34 M2.8 55.43 C22.73 33.92, 41.11 11.79, 50.69 0.34 M1.22 63.34 C16.07 47.84, 31.55 31.95, 55.68 0.7 M1.22 63.34 C16.2 46.96, 30.3 29.66, 55.68 0.7 M3.59 66.72 C23.37 44.79, 39.92 24.45, 61.32 0.3 M3.59 66.72 C15.25 53.57, 27.56 40.11, 61.32 0.3 M5.95 70.1 C20.39 54.65, 30.94 40.4, 66.31 0.66 M5.95 70.1 C20.73 53.33, 34.52 37.34, 66.31 0.66 M9.62 71.97 C27.28 50.26, 45.76 30.95, 71.95 0.27 M9.62 71.97 C33.1 45.52, 56.42 19.57, 71.95 0.27 M13.3 73.84 C33.83 50.66, 55.08 25.79, 76.94 0.63 M13.3 73.84 C31.94 50.75, 50.51 30.58, 76.94 0.63 M16.97 75.71 C36.02 56.07, 53.37 34.05, 82.58 0.23 M16.97 75.71 C36.12 56.03, 52.48 34.18, 82.58 0.23 M21.96 76.07 C38.75 55.56, 57.33 37.2, 87.57 0.59 M21.96 76.07 C47.77 45.95, 73.35 17.07, 87.57 0.59 M27.6 75.67 C43.64 58.15, 55.89 40.28, 93.21 0.2 M27.6 75.67 C47.68 54.18, 67.44 30.81, 93.21 0.2 M32.59 76.03 C53.8 48.28, 79.24 24.44, 98.2 0.56 M32.59 76.03 C48.01 58.25, 64.75 40.47, 98.2 0.56 M38.23 75.64 C64.64 48.56, 88.14 19.86, 103.84 0.17 M38.23 75.64 C64.75 46.57, 91.2 16.76, 103.84 0.17 M43.22 76 C58.95 58.79, 71.69 43, 108.83 0.53 M43.22 76 C65.64 50.02, 88.91 24.29, 108.83 0.53 M48.86 75.6 C69.77 51.83, 86.75 32.89, 114.47 0.13 M48.86 75.6 C72.12 49.03, 94.7 23.5, 114.47 0.13 M53.85 75.96 C67.23 57.03, 84.28 39.75, 119.46 0.49 M53.85 75.96 C69.38 59.28, 85.09 40.31, 119.46 0.49 M59.49 75.57 C73.39 59.4, 86.19 45.23, 124.44 0.85 M59.49 75.57 C80.44 53.8, 98.44 31.46, 124.44 0.85 M64.48 75.93 C77.68 59.59, 96.27 37.52, 130.09 0.46 M64.48 75.93 C90.32 46.42, 116.2 15.68, 130.09 0.46 M70.12 75.53 C88.02 52.07, 109.25 30.79, 135.07 0.82 M70.12 75.53 C84.28 60.02, 97.92 42.73, 135.07 0.82 M75.11 75.89 C89.77 60.49, 102.26 44.52, 140.72 0.42 M75.11 75.89 C97.37 49.74, 118.86 23.4, 140.72 0.42 M80.75 75.5 C94.98 60.3, 110.97 42.58, 145.7 0.78 M80.75 75.5 C95.4 58.27, 109.76 43.16, 145.7 0.78 M85.74 75.86 C100.34 59.11, 113.23 42.32, 151.35 0.39 M85.74 75.86 C108.76 49.55, 133.13 22.59, 151.35 0.39 M91.38 75.46 C114.59 50.97, 135.46 25.09, 156.33 0.75 M91.38 75.46 C108.14 55.05, 124.02 35.65, 156.33 0.75 M96.37 75.82 C110.48 58.06, 126.26 42.78, 161.98 0.35 M96.37 75.82 C117.3 50.89, 139.04 27.71, 161.98 0.35 M102.01 75.43 C123.54 49.45, 146.12 25.09, 166.96 0.71 M102.01 75.43 C120.73 55.92, 138.21 34.62, 166.96 0.71 M107 75.79 C128.73 53.24, 148.83 27.05, 172.61 0.32 M107 75.79 C127.81 52.11, 149.26 27.97, 172.61 0.32 M112.64 75.4 C127.83 59.74, 143.52 41.14, 177.59 0.68 M112.64 75.4 C138.21 46.62, 163.28 18.21, 177.59 0.68 M117.63 75.76 C135.72 50.9, 157.25 28.77, 183.24 0.28 M117.63 75.76 C133.36 58.45, 147.23 41.01, 183.24 0.28 M122.62 76.12 C141.78 55.55, 156.69 34.39, 188.22 0.64 M122.62 76.12 C143.1 53.08, 163.41 28.85, 188.22 0.64 M128.26 75.72 C143.13 55.55, 162.98 36.77, 193.87 0.25 M128.26 75.72 C147.56 52.71, 166.76 32.31, 193.87 0.25 M133.25 76.08 C152.02 55.27, 170.32 32.18, 198.85 0.61 M133.25 76.08 C156.6 49.2, 179.52 23.26, 198.85 0.61 M138.89 75.69 C164.03 49.09, 189.81 17.21, 204.5 0.22 M138.89 75.69 C151.57 61.49, 165.41 44.9, 204.5 0.22 M143.88 76.05 C167.07 52.06, 187.48 25.1, 209.48 0.58 M143.88 76.05 C158.76 57.34, 174.39 39.4, 209.48 0.58 M149.52 75.65 C173.49 46.82, 199.18 14.93, 215.13 0.18 M149.52 75.65 C176.37 46.1, 200.66 16.62, 215.13 0.18 M154.51 76.01 C173.14 55.47, 193.46 34.44, 220.11 0.54 M154.51 76.01 C170.8 56.49, 188.69 37.34, 220.11 0.54 M160.15 75.62 C177.45 51.8, 195.27 31.65, 225.1 0.9 M160.15 75.62 C180.47 51.29, 201.29 28.95, 225.1 0.9 M165.14 75.98 C178.94 61.29, 192.2 44.66, 230.74 0.51 M165.14 75.98 C185.51 54.32, 204 30.52, 230.74 0.51 M170.78 75.58 C183.83 61.18, 195.85 46.4, 235.73 0.87 M170.78 75.58 C184.42 59.19, 198.88 44.02, 235.73 0.87 M175.77 75.94 C198.55 49.42, 223.96 20.28, 241.37 0.47 M175.77 75.94 C192.04 55.6, 209.86 35.92, 241.37 0.47 M181.41 75.55 C204.11 50.46, 228.38 21.58, 246.36 0.83 M181.41 75.55 C202.25 52, 223.18 27.56, 246.36 0.83 M186.4 75.91 C203.49 54.87, 220.92 37.27, 252 0.44 M186.4 75.91 C202.04 59.13, 217 41.93, 252 0.44 M192.04 75.51 C212.41 54.76, 230.15 34.66, 256.99 0.8 M192.04 75.51 C210.59 54.93, 227.44 35.27, 256.99 0.8 M197.03 75.87 C216.14 50.97, 237.56 29.56, 262.63 0.4 M197.03 75.87 C215.5 55.48, 232.11 35.2, 262.63 0.4 M202.67 75.48 C217.13 57.83, 230.6 43.04, 267.62 0.76 M202.67 75.48 C220.45 55.48, 237.84 34.82, 267.62 0.76 M207.66 75.84 C225.79 52.84, 245.8 29.24, 273.26 0.37 M207.66 75.84 C223.12 56.13, 239.03 38.85, 273.26 0.37 M212.65 76.2 C233.02 53.71, 251.65 29.16, 278.25 0.73 M212.65 76.2 C237.26 50.32, 259.83 22.17, 278.25 0.73 M218.29 75.8 C234.75 56.62, 250.62 38.25, 283.9 0.33 M218.29 75.8 C234.64 56.56, 249.38 39.35, 283.9 0.33 M223.28 76.16 C248.15 46.17, 272.9 15.75, 288.88 0.69 M223.28 76.16 C246.06 52.79, 266.34 28.2, 288.88 0.69 M228.92 75.77 C249.72 50.41, 272.41 26.53, 294.53 0.3 M228.92 75.77 C247.59 53.36, 268.12 30.8, 294.53 0.3 M233.91 76.13 C249.24 57.29, 266.85 38.5, 299.51 0.66 M233.91 76.13 C259.1 46.11, 285.87 17.32, 299.51 0.66 M239.55 75.74 C266.04 47.33, 288.89 19.17, 305.16 0.26 M239.55 75.74 C257.78 56, 275 35.7, 305.16 0.26 M244.54 76.1 C268.3 51.33, 289.46 26.13, 310.14 0.62 M244.54 76.1 C265.17 50.92, 288.68 24.23, 310.14 0.62 M250.18 75.7 C274.96 47.19, 300.67 19.95, 315.79 0.23 M250.18 75.7 C263.96 59.36, 277.41 45.37, 315.79 0.23 M255.17 76.06 C268.12 60.11, 284.85 42.39, 320.77 0.59 M255.17 76.06 C279.7 48.12, 303.45 22.15, 320.77 0.59 M260.81 75.67 C286.84 44.8, 314.2 15.92, 325.76 0.95 M260.81 75.67 C283.67 51.18, 304 25.6, 325.76 0.95 M265.8 76.03 C290.86 45.79, 311.97 20.95, 331.4 0.56 M265.8 76.03 C283.21 56.6, 299.31 37.02, 331.4 0.56 M271.44 75.63 C285.12 58.91, 298.61 43.22, 336.39 0.92 M271.44 75.63 C288.62 53.5, 308.52 33.47, 336.39 0.92 M276.43 75.99 C299.98 46.04, 324.43 18.47, 342.03 0.52 M276.43 75.99 C303.45 47.08, 329.6 17.7, 342.03 0.52 M282.07 75.6 C302.76 52.4, 321.7 26.2, 347.02 0.88 M282.07 75.6 C300.96 53.13, 321.37 30.84, 347.02 0.88 M287.06 75.96 C310.57 52.44, 328.66 27.27, 352.66 0.49 M287.06 75.96 C311.02 49.76, 333.59 23.47, 352.66 0.49 M292.7 75.56 C311.85 52.11, 332.59 27.64, 357.65 0.85 M292.7 75.56 C318.89 45.37, 343.72 17.36, 357.65 0.85 M297.69 75.92 C311.47 61.07, 322.73 43.3, 363.29 0.45 M297.69 75.92 C317.77 54.02, 334.76 33.94, 363.29 0.45 M303.33 75.53 C321.3 55.04, 338.11 38.69, 368.28 0.81 M303.33 75.53 C325.95 48.23, 350.7 20.77, 368.28 0.81 M308.32 75.89 C332.07 52.95, 353.34 24.3, 373.92 0.42 M308.32 75.89 C332.38 49.03, 357.01 20.94, 373.92 0.42 M313.3 76.25 C339.93 45.58, 364.13 17.63, 378.91 0.78 M313.3 76.25 C329.54 58.52, 346.04 40.95, 378.91 0.78 M318.95 75.85 C336.65 54.89, 356.53 30.16, 384.55 0.38 M318.95 75.85 C342.16 49.92, 364.21 25.01, 384.55 0.38 M323.93 76.21 C339 58.72, 353.04 42.22, 389.54 0.74 M323.93 76.21 C337.38 60.19, 351.88 45.05, 389.54 0.74 M329.58 75.82 C344.62 60.9, 356.72 41.79, 395.18 0.35 M329.58 75.82 C353.01 48.75, 374.66 21.83, 395.18 0.35 M334.56 76.18 C356.78 51.75, 379.29 24.45, 400.17 0.71 M334.56 76.18 C351.17 57.45, 369.5 37.19, 400.17 0.71 M340.21 75.79 C359.29 51.75, 381.21 26.79, 405.81 0.31 M340.21 75.79 C364.07 47.8, 386.37 20.89, 405.81 0.31 M345.19 76.15 C364.19 53.43, 386.06 30.53, 410.8 0.67 M345.19 76.15 C359.27 60.34, 373.1 45.18, 410.8 0.67 M350.84 75.75 C372.79 51.11, 393.47 25.24, 415.79 1.03 M350.84 75.75 C368.65 55.3, 386.93 34.32, 415.79 1.03 M355.82 76.11 C375.92 53.89, 394.62 30.76, 421.43 0.64 M355.82 76.11 C369.1 61.07, 381.75 45.27, 421.43 0.64 M361.47 75.72 C377.92 54.82, 398.46 33.44, 426.42 1 M361.47 75.72 C378.1 58.3, 393.24 39.78, 426.42 1 M366.45 76.08 C385.8 52.23, 406.12 30.57, 432.06 0.61 M366.45 76.08 C380.87 58.11, 397.77 39.56, 432.06 0.61 M372.1 75.68 C389.15 53.02, 408.97 34.86, 437.05 0.97 M372.1 75.68 C398.92 46.99, 424.25 17.36, 437.05 0.97 M377.08 76.04 C398.55 48.92, 423.55 24.71, 442.69 0.57 M377.08 76.04 C394.1 55.05, 412.41 35.71, 442.69 0.57 M382.73 75.65 C397.17 60.71, 410.88 43.89, 446.37 2.44 M382.73 75.65 C395.96 59.59, 411.82 42.55, 446.37 2.44 M387.71 76.01 C408.97 50.35, 432.67 22.32, 450.04 4.31 M387.71 76.01 C405.78 56.29, 423.03 35.77, 450.04 4.31 M393.36 75.61 C408.22 61.58, 421.77 44.41, 454.37 5.42 M393.36 75.61 C407.59 57.88, 424.04 39.91, 454.37 5.42 M398.34 75.97 C408.47 62.16, 420.9 47.18, 456.73 8.8 M398.34 75.97 C410.8 61.02, 422.65 46.53, 456.73 8.8 M403.33 76.33 C422.89 53.2, 442.02 30.85, 459.1 12.18 M403.33 76.33 C426.34 51.97, 446.5 27.16, 459.1 12.18 M408.97 75.94 C423.34 62.22, 434.54 47.09, 458.18 19.34 M408.97 75.94 C418.79 63.63, 430.69 50.84, 458.18 19.34 M413.96 76.3 C428.8 57.82, 449.21 38.87, 458.57 24.98 M413.96 76.3 C428.44 61.18, 442.01 43.26, 458.57 24.98 M419.6 75.9 C434.3 60.2, 448.54 43.84, 458.31 31.38 M419.6 75.9 C428.42 64.88, 438.38 52.94, 458.31 31.38 M424.59 76.26 C437.98 61.73, 448.27 49.75, 458.05 37.77 M424.59 76.26 C435.34 62.99, 446.7 49.84, 458.05 37.77 M430.23 75.87 C437.28 67.09, 446.32 55.18, 458.45 43.42 M430.23 75.87 C436.36 68.75, 444 61, 458.45 43.42 M435.22 76.23 C442.89 68.24, 446.21 61.08, 458.18 49.81 M435.22 76.23 C443.45 67.45, 450.32 57.9, 458.18 49.81 M441.52 75.08 C447.76 68.13, 452.62 60.64, 457.92 56.21 M441.52 75.08 C446.44 69.11, 452.28 62.97, 457.92 56.21 M448.48 73.18 C449.88 69.97, 453.07 69.65, 458.97 61.1 M448.48 73.18 C452.65 68.53, 456.33 63.4, 458.97 61.1" stroke="#ced4da" stroke-width="0.5" fill="none"></path><path d="M18.37 0 M18.37 0 C152.26 0.09, 286.17 -1.39, 439.38 0 M18.37 0 C109.4 1.6, 199.89 1.92, 439.38 0 M439.38 0 C452.68 1.82, 458.35 4.7, 457.74 18.37 M439.38 0 C451 -0.97, 458.52 7.45, 457.74 18.37 M457.74 18.37 C458.33 30.4, 456.3 39.5, 457.74 55.1 M457.74 18.37 C458.26 29.49, 456.8 38.51, 457.74 55.1 M457.74 55.1 C457.69 68.55, 449.63 74.83, 439.38 73.46 M457.74 55.1 C456.09 68.72, 453.81 72.85, 439.38 73.46 M439.38 73.46 C352.16 73.55, 264.4 73.04, 18.37 73.46 M439.38 73.46 C297.86 73.94, 156.33 74.03, 18.37 73.46 M18.37 73.46 C4.72 74.99, -0.82 68.6, 0 55.1 M18.37 73.46 C5.59 74.12, -1.27 69.22, 0 55.1 M0 55.1 C2.19 45.55, -1.28 33.81, 0 18.37 M0 55.1 C-0.72 44.83, 0.51 32.55, 0 18.37 M0 18.37 C-0.22 5.05, 8.05 -1.25, 18.37 0 M0 18.37 C-1.8 4.81, 7.55 -1.02, 18.37 0" stroke="#000000" stroke-width="1" fill="none"></path></g><g stroke-linecap="round"><g transform="translate(617.6153846153843 431.7802197802199) rotate(0 0 63.076923076923094)"><path d="M0 0 C0 21.03, 0 105.13, 0 126.15 M0 0 C0 21.03, 0 105.13, 0 126.15" stroke="#000000" stroke-width="2" fill="none"></path></g></g><g stroke-linecap="round" transform="translate(750.6923076923076 471.78021978022014) rotate(0 84.61538461538453 21.923076923076906)"><path d="M2.92 2.54 C2.92 2.54, 2.92 2.54, 2.92 2.54 M2.92 2.54 C2.92 2.54, 2.92 2.54, 2.92 2.54 M0.69 11.2 C2.81 8.76, 4.93 6.32, 8.56 2.14 M0.69 11.2 C3.36 8.13, 6.03 5.06, 8.56 2.14 M0.43 17.6 C4.85 12.5, 9.28 7.41, 13.55 2.5 M0.43 17.6 C5.38 11.9, 10.33 6.21, 13.55 2.5 M0.82 23.24 C4.5 19.01, 8.18 14.77, 19.19 2.11 M0.82 23.24 C4.84 18.61, 8.86 13.99, 19.19 2.11 M0.56 29.64 C9.2 19.69, 17.85 9.75, 24.18 2.47 M0.56 29.64 C9.97 18.81, 19.39 7.98, 24.18 2.47 M1.61 34.53 C10.9 23.84, 20.18 13.16, 29.82 2.07 M1.61 34.53 C12.06 22.51, 22.5 10.49, 29.82 2.07 M2.66 39.41 C10.99 29.83, 19.33 20.24, 34.81 2.43 M2.66 39.41 C9.71 31.3, 16.77 23.19, 34.81 2.43 M5.02 42.79 C15.22 31.06, 25.42 19.33, 40.45 2.04 M5.02 42.79 C18.33 27.49, 31.63 12.19, 40.45 2.04 M8.04 45.42 C22.85 28.38, 37.66 11.35, 45.44 2.4 M8.04 45.42 C20.19 31.44, 32.34 17.47, 45.44 2.4 M13.03 45.78 C24.52 32.56, 36.02 19.33, 51.08 2 M13.03 45.78 C25.31 31.65, 37.6 17.52, 51.08 2 M18.67 45.38 C31.72 30.38, 44.76 15.37, 56.07 2.36 M18.67 45.38 C30.13 32.2, 41.59 19.02, 56.07 2.36 M23.66 45.74 C38.29 28.91, 52.92 12.08, 61.06 2.72 M23.66 45.74 C31.4 36.84, 39.13 27.94, 61.06 2.72 M29.3 45.35 C39.92 33.13, 50.54 20.92, 66.7 2.33 M29.3 45.35 C39.1 34.08, 48.9 22.81, 66.7 2.33 M34.29 45.71 C48.07 29.85, 61.86 13.99, 71.69 2.69 M34.29 45.71 C46.58 31.57, 58.87 17.43, 71.69 2.69 M39.28 46.07 C53.03 30.24, 66.79 14.42, 77.33 2.29 M39.28 46.07 C54.32 28.76, 69.37 11.45, 77.33 2.29 M44.92 45.67 C53.93 35.3, 62.95 24.93, 82.32 2.65 M44.92 45.67 C55.96 32.98, 66.99 20.28, 82.32 2.65 M49.91 46.03 C62.66 31.36, 75.42 16.68, 87.96 2.26 M49.91 46.03 C58.17 36.53, 66.43 27.03, 87.96 2.26 M55.55 45.64 C63.38 36.64, 71.2 27.63, 92.95 2.62 M55.55 45.64 C63.77 36.18, 71.99 26.73, 92.95 2.62 M60.54 46 C73.96 30.56, 87.39 15.11, 98.59 2.23 M60.54 46 C73.61 30.97, 86.67 15.93, 98.59 2.23 M66.18 45.6 C76.19 34.09, 86.2 22.57, 103.58 2.59 M66.18 45.6 C78.23 31.74, 90.28 17.88, 103.58 2.59 M71.17 45.96 C84.69 30.41, 98.22 14.85, 109.22 2.19 M71.17 45.96 C82.48 32.95, 93.79 19.94, 109.22 2.19 M76.81 45.57 C84.46 36.77, 92.11 27.97, 114.21 2.55 M76.81 45.57 C89.09 31.44, 101.37 17.32, 114.21 2.55 M81.8 45.93 C92.38 33.75, 102.97 21.57, 119.85 2.16 M81.8 45.93 C93.5 32.47, 105.19 19.01, 119.85 2.16 M87.44 45.54 C94.98 36.86, 102.53 28.18, 124.84 2.52 M87.44 45.54 C97.55 33.91, 107.65 22.28, 124.84 2.52 M92.43 45.9 C101.94 34.96, 111.45 24.02, 130.48 2.12 M92.43 45.9 C104.2 32.35, 115.97 18.81, 130.48 2.12 M98.07 45.5 C106.85 35.4, 115.64 25.29, 135.47 2.48 M98.07 45.5 C108.78 33.18, 119.49 20.86, 135.47 2.48 M103.06 45.86 C118.02 28.65, 132.98 11.44, 141.11 2.09 M103.06 45.86 C116.17 30.78, 129.28 15.7, 141.11 2.09 M108.7 45.47 C118.93 33.7, 129.15 21.94, 146.1 2.45 M108.7 45.47 C116.97 35.95, 125.25 26.43, 146.1 2.45 M113.69 45.83 C122.22 36.01, 130.75 26.2, 151.74 2.05 M113.69 45.83 C127.41 30.04, 141.13 14.26, 151.74 2.05 M119.33 45.43 C130.38 32.72, 141.43 20.01, 158.69 0.15 M119.33 45.43 C128.22 35.21, 137.11 24.98, 158.69 0.15 M124.32 45.79 C134.11 34.52, 143.91 23.25, 163.03 1.26 M124.32 45.79 C132.51 36.37, 140.7 26.94, 163.03 1.26 M129.96 45.4 C137.8 36.37, 145.65 27.35, 166.7 3.13 M129.96 45.4 C143.08 30.3, 156.2 15.21, 166.7 3.13 M134.95 45.76 C148.04 30.7, 161.13 15.64, 169.06 6.51 M134.95 45.76 C143.75 35.64, 152.55 25.51, 169.06 6.51 M140.59 45.36 C147.16 37.81, 153.73 30.25, 170.11 11.4 M140.59 45.36 C151.77 32.5, 162.95 19.64, 170.11 11.4 M145.58 45.72 C153.19 36.97, 160.8 28.21, 169.85 17.8 M145.58 45.72 C154.46 35.5, 163.34 25.29, 169.85 17.8 M151.22 45.33 C156.02 39.81, 160.82 34.29, 170.25 23.44 M151.22 45.33 C158.07 37.45, 164.92 29.57, 170.25 23.44 M156.21 45.69 C160.81 40.4, 165.41 35.11, 169.99 29.84 M156.21 45.69 C160.46 40.8, 164.71 35.91, 169.99 29.84 M163.16 43.78 C165.06 41.6, 166.95 39.42, 171.04 34.73 M163.16 43.78 C165.35 41.27, 167.53 38.76, 171.04 34.73" stroke="#fa5252" stroke-width="0.5" fill="none"></path><path d="M10.96 0 M10.96 0 C59.56 0, 108.15 0, 158.27 0 M10.96 0 C64.63 0, 118.3 0, 158.27 0 M158.27 0 C165.58 0, 169.23 3.65, 169.23 10.96 M158.27 0 C165.58 0, 169.23 3.65, 169.23 10.96 M169.23 10.96 C169.23 18.66, 169.23 26.35, 169.23 32.88 M169.23 10.96 C169.23 17.22, 169.23 23.47, 169.23 32.88 M169.23 32.88 C169.23 40.19, 165.58 43.85, 158.27 43.85 M169.23 32.88 C169.23 40.19, 165.58 43.85, 158.27 43.85 M158.27 43.85 C124.04 43.85, 89.8 43.85, 10.96 43.85 M158.27 43.85 C109.61 43.85, 60.96 43.85, 10.96 43.85 M10.96 43.85 C3.65 43.85, 0 40.19, 0 32.88 M10.96 43.85 C3.65 43.85, 0 40.19, 0 32.88 M0 32.88 C0 25.68, 0 18.47, 0 10.96 M0 32.88 C0 28.5, 0 24.11, 0 10.96 M0 10.96 C0 3.65, 3.65 0, 10.96 0 M0 10.96 C0 3.65, 3.65 0, 10.96 0" stroke="#000000" stroke-width="1" fill="none"></path></g><g transform="translate(812.6538461538462 485.7417582417585) rotate(0 16.5 9.5)"><text x="16.5" y="13" font-family="Helvetica, Segoe UI Emoji" font-size="16px" fill="#000000" text-anchor="middle" style="white-space: pre;" direction="ltr">FAIL</text></g><g stroke-linecap="round" transform="translate(751.4615384615381 536.0109890109892) rotate(0 84.61538461538453 21.923076923076906)"><path d="M2.92 2.54 C2.92 2.54, 2.92 2.54, 2.92 2.54 M2.92 2.54 C2.92 2.54, 2.92 2.54, 2.92 2.54 M0.69 11.2 C3.23 8.28, 5.77 5.36, 8.56 2.14 M0.69 11.2 C3.76 7.67, 6.82 4.14, 8.56 2.14 M0.43 17.6 C4.71 12.67, 9 7.74, 13.55 2.5 M0.43 17.6 C3.91 13.59, 7.39 9.59, 13.55 2.5 M0.82 23.24 C4.87 18.58, 8.93 13.91, 19.19 2.11 M0.82 23.24 C7.61 15.43, 14.4 7.62, 19.19 2.11 M0.56 29.64 C7.99 21.09, 15.42 12.54, 24.18 2.47 M0.56 29.64 C5.8 23.61, 11.04 17.58, 24.18 2.47 M1.61 34.53 C8.3 26.83, 15 19.12, 29.82 2.07 M1.61 34.53 C7.73 27.48, 13.86 20.43, 29.82 2.07 M2.66 39.41 C10.67 30.2, 18.67 20.99, 34.81 2.43 M2.66 39.41 C12.68 27.89, 22.69 16.37, 34.81 2.43 M5.02 42.79 C17.58 28.34, 30.14 13.9, 40.45 2.04 M5.02 42.79 C16.05 30.1, 27.08 17.42, 40.45 2.04 M8.04 45.42 C16.08 36.17, 24.12 26.92, 45.44 2.4 M8.04 45.42 C21.5 29.94, 34.95 14.46, 45.44 2.4 M13.03 45.78 C22.95 34.36, 32.87 22.95, 51.08 2 M13.03 45.78 C21.58 35.94, 30.13 26.1, 51.08 2 M18.67 45.38 C26.3 36.61, 33.93 27.84, 56.07 2.36 M18.67 45.38 C33.11 28.77, 47.55 12.16, 56.07 2.36 M23.66 45.74 C36.77 30.66, 49.89 15.57, 61.06 2.72 M23.66 45.74 C35.76 31.82, 47.86 17.9, 61.06 2.72 M29.3 45.35 C41.03 31.85, 52.77 18.36, 66.7 2.33 M29.3 45.35 C36.92 36.58, 44.54 27.82, 66.7 2.33 M34.29 45.71 C46.45 31.72, 58.6 17.74, 71.69 2.69 M34.29 45.71 C48.05 29.88, 61.81 14.05, 71.69 2.69 M39.28 46.07 C52.53 30.82, 65.78 15.57, 77.33 2.29 M39.28 46.07 C47.63 36.45, 55.99 26.84, 77.33 2.29 M44.92 45.67 C59.55 28.85, 74.17 12.02, 82.32 2.65 M44.92 45.67 C56.58 32.26, 68.23 18.85, 82.32 2.65 M49.91 46.03 C58.2 36.49, 66.49 26.95, 87.96 2.26 M49.91 46.03 C58.83 35.77, 67.75 25.51, 87.96 2.26 M55.55 45.64 C65.36 34.36, 75.16 23.08, 92.95 2.62 M55.55 45.64 C66.86 32.63, 78.16 19.62, 92.95 2.62 M60.54 46 C73.44 31.15, 86.35 16.31, 98.59 2.23 M60.54 46 C69.76 35.38, 78.99 24.77, 98.59 2.23 M66.18 45.6 C79.57 30.2, 92.96 14.8, 103.58 2.59 M66.18 45.6 C76.7 33.51, 87.21 21.41, 103.58 2.59 M71.17 45.96 C80.1 35.69, 89.03 25.42, 109.22 2.19 M71.17 45.96 C80 35.8, 88.83 25.65, 109.22 2.19 M76.81 45.57 C84.45 36.78, 92.09 27.99, 114.21 2.55 M76.81 45.57 C91.14 29.08, 105.48 12.59, 114.21 2.55 M81.8 45.93 C94.49 31.33, 107.18 16.73, 119.85 2.16 M81.8 45.93 C96.45 29.07, 111.11 12.21, 119.85 2.16 M87.44 45.54 C96.16 35.5, 104.89 25.46, 124.84 2.52 M87.44 45.54 C100.06 31.02, 112.68 16.5, 124.84 2.52 M92.43 45.9 C106.54 29.66, 120.66 13.42, 130.48 2.12 M92.43 45.9 C102.98 33.75, 113.53 21.61, 130.48 2.12 M98.07 45.5 C112.4 29.01, 126.74 12.52, 135.47 2.48 M98.07 45.5 C108.03 34.04, 117.99 22.59, 135.47 2.48 M103.06 45.86 C117.84 28.86, 132.62 11.85, 141.11 2.09 M103.06 45.86 C113.64 33.69, 124.22 21.51, 141.11 2.09 M108.7 45.47 C119.88 32.6, 131.06 19.74, 146.1 2.45 M108.7 45.47 C119.4 33.16, 130.1 20.85, 146.1 2.45 M113.69 45.83 C126.39 31.21, 139.09 16.6, 151.74 2.05 M113.69 45.83 C127.03 30.48, 140.37 15.13, 151.74 2.05 M119.33 45.43 C132.37 30.43, 145.41 15.43, 158.69 0.15 M119.33 45.43 C131.41 31.54, 143.49 17.64, 158.69 0.15 M124.32 45.79 C134.42 34.17, 144.52 22.55, 163.03 1.26 M124.32 45.79 C134.07 34.58, 143.81 23.37, 163.03 1.26 M129.96 45.4 C142.35 31.15, 154.74 16.9, 166.7 3.13 M129.96 45.4 C138.5 35.58, 147.04 25.75, 166.7 3.13 M134.95 45.76 C146.22 32.8, 157.48 19.83, 169.06 6.51 M134.95 45.76 C146.29 32.71, 157.63 19.67, 169.06 6.51 M140.59 45.36 C148.86 35.85, 157.13 26.33, 170.11 11.4 M140.59 45.36 C151.23 33.13, 161.87 20.89, 170.11 11.4 M145.58 45.72 C150.63 39.91, 155.68 34.1, 169.85 17.8 M145.58 45.72 C153.75 36.32, 161.93 26.92, 169.85 17.8 M151.22 45.33 C155.59 40.3, 159.97 35.27, 170.25 23.44 M151.22 45.33 C158.49 36.97, 165.75 28.61, 170.25 23.44 M156.21 45.69 C159.89 41.45, 163.58 37.21, 169.99 29.84 M156.21 45.69 C159.01 42.47, 161.8 39.25, 169.99 29.84 M163.16 43.78 C166.01 40.51, 168.86 37.23, 171.04 34.73 M163.16 43.78 C166.17 40.32, 169.18 36.86, 171.04 34.73" stroke="#40c057" stroke-width="0.5" fill="none"></path><path d="M10.96 0 M10.96 0 C67.96 0, 124.96 0, 158.27 0 M10.96 0 C49.76 0, 88.56 0, 158.27 0 M158.27 0 C165.58 0, 169.23 3.65, 169.23 10.96 M158.27 0 C165.58 0, 169.23 3.65, 169.23 10.96 M169.23 10.96 C169.23 19.59, 169.23 28.21, 169.23 32.88 M169.23 10.96 C169.23 19.03, 169.23 27.09, 169.23 32.88 M169.23 32.88 C169.23 40.19, 165.58 43.85, 158.27 43.85 M169.23 32.88 C169.23 40.19, 165.58 43.85, 158.27 43.85 M158.27 43.85 C109.77 43.85, 61.28 43.85, 10.96 43.85 M158.27 43.85 C115.45 43.85, 72.62 43.85, 10.96 43.85 M10.96 43.85 C3.65 43.85, 0 40.19, 0 32.88 M10.96 43.85 C3.65 43.85, 0 40.19, 0 32.88 M0 32.88 C0 24.76, 0 16.64, 0 10.96 M0 32.88 C0 27.2, 0 21.51, 0 10.96 M0 10.96 C0 3.65, 3.65 0, 10.96 0 M0 10.96 C0 3.65, 3.65 0, 10.96 0" stroke="#000000" stroke-width="1" fill="none"></path></g><g transform="translate(818.4230769230767 549.9725274725275) rotate(0 11.5 9.5)"><text x="11.5" y="13" font-family="Helvetica, Segoe UI Emoji" font-size="16px" fill="#000000" text-anchor="middle" style="white-space: pre;" direction="ltr">OK</text></g><g stroke-linecap="round"><g transform="translate(618.3846153846152 494.0879120879123) rotate(0 65.6538461538463 -0.2344192702811938)"><path d="M0 0 C21.88 -0.08, 109.42 -0.39, 131.31 -0.47 M0 0 C21.88 -0.08, 109.42 -0.39, 131.31 -0.47" stroke="#000000" stroke-width="2" fill="none"></path></g><g transform="translate(618.3846153846152 494.0879120879123) rotate(0 65.6538461538463 -0.2344192702811938)"><path d="M103.15 9.89 C113.91 5.93, 124.67 1.97, 131.31 -0.47 M103.15 9.89 C112.41 6.49, 121.66 3.08, 131.31 -0.47" stroke="#000000" stroke-width="2" fill="none"></path></g><g transform="translate(618.3846153846152 494.0879120879123) rotate(0 65.6538461538463 -0.2344192702811938)"><path d="M103.08 -10.63 C113.87 -6.75, 124.65 -2.86, 131.31 -0.47 M103.08 -10.63 C112.36 -7.29, 121.63 -3.95, 131.31 -0.47" stroke="#000000" stroke-width="2" fill="none"></path></g></g><g stroke-linecap="round"><g transform="translate(616.8461538461534 557.1648351648354) rotate(0 66.92307692307702 0.38461538461547207)"><path d="M0 0 C22.31 0.13, 111.54 0.64, 133.85 0.77 M0 0 C22.31 0.13, 111.54 0.64, 133.85 0.77" stroke="#000000" stroke-width="2" fill="none"></path></g><g transform="translate(616.8461538461534 557.1648351648354) rotate(0 66.92307692307702 0.38461538461547207)"><path d="M105.6 10.87 C111.4 8.79, 117.21 6.72, 133.85 0.77 M105.6 10.87 C115.43 7.35, 125.26 3.84, 133.85 0.77" stroke="#000000" stroke-width="2" fill="none"></path></g><g transform="translate(616.8461538461534 557.1648351648354) rotate(0 66.92307692307702 0.38461538461547207)"><path d="M105.71 -9.65 C111.5 -7.51, 117.28 -5.37, 133.85 0.77 M105.71 -9.65 C115.51 -6.03, 125.3 -2.4, 133.85 0.77" stroke="#000000" stroke-width="2" fill="none"></path></g></g><g transform="translate(652.5384615384614 469.89560439560466) rotate(0 22 9.5)"><text x="22" y="13" font-family="Helvetica, Segoe UI Emoji" font-size="16px" fill="#000000" text-anchor="middle" style="white-space: pre;" direction="ltr">if True</text></g><g transform="translate(659.2692307692305 532.9725274725278) rotate(0 14.5 9.5)"><text x="14.5" y="13" font-family="Helvetica, Segoe UI Emoji" font-size="16px" fill="#000000" text-anchor="middle" style="white-space: pre;" direction="ltr">else</text></g><g stroke-linecap="round"><g transform="translate(165.8947368421052 147.38750722961265) rotate(0 -0.29524256338777377 21.92719780219764)"><path d="M0 0 C-0.1 7.31, -0.49 36.55, -0.59 43.85 M0 0 C-0.1 7.31, -0.49 36.55, -0.59 43.85" stroke="#000000" stroke-width="1" fill="none"></path></g><g transform="translate(165.8947368421052 147.38750722961265) rotate(0 -0.29524256338777377 21.92719780219764)"><path d="M-7.81 23.15 C-5.14 30.82, -2.46 38.49, -0.59 43.85 M-7.81 23.15 C-5.64 29.37, -3.47 35.6, -0.59 43.85" stroke="#000000" stroke-width="1" fill="none"></path></g><g transform="translate(165.8947368421052 147.38750722961265) rotate(0 -0.29524256338777377 21.92719780219764)"><path d="M7.19 23.35 C4.31 30.95, 1.43 38.54, -0.59 43.85 M7.19 23.35 C4.85 29.51, 2.51 35.68, -0.59 43.85" stroke="#000000" stroke-width="1" fill="none"></path></g></g><g stroke-linecap="round" transform="translate(158.84210526315746 290.46645459803375) rotate(0 118 27.5)"><path d="M3.66 3.18 C3.66 3.18, 3.66 3.18, 3.66 3.18 M3.66 3.18 C3.66 3.18, 3.66 3.18, 3.66 3.18 M3.4 9.58 C5.57 7.54, 6.77 5.27, 9.3 2.79 M3.4 9.58 C5.1 8.07, 6.27 5.88, 9.3 2.79 M3.14 15.98 C6.4 13.2, 9.8 5.61, 15.6 1.64 M3.14 15.98 C8.15 9.95, 12.29 5.79, 15.6 1.64 M2.88 22.37 C8.99 14.47, 14.48 10.68, 20.59 2 M2.88 22.37 C8.38 15.6, 14.58 10.39, 20.59 2 M3.27 28.02 C11.4 19.77, 22.42 7.31, 26.23 1.6 M3.27 28.02 C10.16 19.05, 17.05 11.55, 26.23 1.6 M3.66 33.66 C14.24 21.69, 23.41 8.51, 31.22 1.96 M3.66 33.66 C12.79 21.33, 23.58 11.26, 31.22 1.96 M3.4 40.06 C14.51 27.99, 27.8 13.14, 36.86 1.57 M3.4 40.06 C17.4 25.1, 30.23 9.52, 36.86 1.57 M1.83 47.97 C11.33 36.25, 21.43 27.93, 41.85 1.93 M1.83 47.97 C9.5 36.93, 18.63 28.25, 41.85 1.93 M4.19 51.35 C18.27 33.99, 32.17 18.86, 47.49 1.53 M4.19 51.35 C19.62 34.91, 32.66 16.67, 47.49 1.53 M6.56 54.72 C22.01 35.13, 39.36 18.27, 52.48 1.89 M6.56 54.72 C15.39 43.79, 25.85 32.28, 52.48 1.89 M11.54 55.08 C21.62 44.57, 32.91 33.59, 58.12 1.5 M11.54 55.08 C28.84 34.71, 46.18 14.72, 58.12 1.5 M16.53 55.44 C27.18 45.46, 36.12 31.8, 63.11 1.86 M16.53 55.44 C27.11 43.89, 37.89 31.84, 63.11 1.86 M21.52 55.8 C37.68 38.29, 53.7 18.29, 68.75 1.47 M21.52 55.8 C33.91 40.78, 47.45 27.67, 68.75 1.47 M27.16 55.41 C41.79 42.22, 52.59 25.95, 73.74 1.83 M27.16 55.41 C41.55 37.46, 57.36 20.95, 73.74 1.83 M32.15 55.77 C45.28 38.05, 59.47 20.68, 79.38 1.43 M32.15 55.77 C41.73 43.48, 51.47 32.34, 79.38 1.43 M37.79 55.38 C54.08 40.44, 65.88 24.1, 84.37 1.79 M37.79 55.38 C52.16 40.09, 65.14 23.44, 84.37 1.79 M42.78 55.74 C53.18 40.18, 67.14 27.17, 90.01 1.4 M42.78 55.74 C62.02 34.9, 79.93 13.75, 90.01 1.4 M48.42 55.34 C62.77 37.74, 80.74 21.54, 95 1.76 M48.42 55.34 C63.04 38.35, 75.81 22.29, 95 1.76 M53.41 55.7 C65.89 42.31, 73.56 30.92, 100.64 1.36 M53.41 55.7 C71.9 33.96, 90.29 13.36, 100.64 1.36 M59.05 55.31 C70.48 40.45, 85.26 27.34, 105.63 1.72 M59.05 55.31 C69.72 42.73, 80.03 29.86, 105.63 1.72 M64.04 55.67 C74.66 44.89, 84.62 33.12, 110.62 2.08 M64.04 55.67 C82.61 33.82, 100.42 14.7, 110.62 2.08 M69.68 55.27 C83.73 40.12, 96.84 24.83, 116.26 1.69 M69.68 55.27 C86.77 36.36, 102.66 17.16, 116.26 1.69 M74.67 55.63 C89.21 39.95, 102.79 24.49, 121.25 2.05 M74.67 55.63 C83.97 44.11, 93.69 33.17, 121.25 2.05 M80.31 55.24 C93.8 42.51, 103.75 27.37, 126.89 1.65 M80.31 55.24 C91.59 42.63, 103.36 28.37, 126.89 1.65 M85.3 55.6 C102.19 35.48, 118.23 16.03, 131.88 2.01 M85.3 55.6 C95.59 42.91, 106.71 31.44, 131.88 2.01 M90.94 55.2 C101.7 40.72, 117.41 24.69, 137.52 1.62 M90.94 55.2 C104.46 38.18, 120.52 21.47, 137.52 1.62 M95.93 55.56 C110.34 40, 123.07 21.45, 142.51 1.98 M95.93 55.56 C106.19 42.64, 118.37 29.12, 142.51 1.98 M101.57 55.17 C121.73 33.51, 137.95 13.27, 148.15 1.58 M101.57 55.17 C112.16 44.83, 121.02 32.56, 148.15 1.58 M106.56 55.53 C118.58 40.37, 129.32 27.21, 153.14 1.94 M106.56 55.53 C117.42 42.83, 128.1 30.32, 153.14 1.94 M111.54 55.89 C121.22 43.43, 132.15 30.39, 158.78 1.55 M111.54 55.89 C122.73 43.05, 133.62 29.44, 158.78 1.55 M117.19 55.49 C130.65 39.18, 145.62 21.88, 163.77 1.91 M117.19 55.49 C127.74 42.68, 138.99 31.55, 163.77 1.91 M122.17 55.85 C140.16 33.35, 161.11 13.61, 169.41 1.51 M122.17 55.85 C140.01 34.19, 159.15 12.76, 169.41 1.51 M127.82 55.46 C144.65 36.35, 158.76 17.87, 174.4 1.87 M127.82 55.46 C137.11 44.98, 147.91 33, 174.4 1.87 M132.8 55.82 C143.82 42.47, 155.46 28.72, 180.04 1.48 M132.8 55.82 C142.77 42.34, 153.38 30.64, 180.04 1.48 M138.45 55.42 C152.71 42.92, 164.6 26.44, 185.03 1.84 M138.45 55.42 C156.67 34.55, 175.11 14.9, 185.03 1.84 M143.43 55.78 C156.85 37.04, 173.02 20.88, 190.67 1.45 M143.43 55.78 C156.47 41.8, 169.72 26.06, 190.67 1.45 M149.08 55.39 C164.19 36.97, 180.01 20.21, 195.66 1.81 M149.08 55.39 C164.17 38.03, 179.76 19.58, 195.66 1.81 M154.06 55.75 C170.35 34.98, 188.16 14.36, 200.64 2.17 M154.06 55.75 C173.2 33.97, 190.18 13.44, 200.64 2.17 M159.71 55.36 C176.67 37.09, 193.17 16.17, 206.29 1.77 M159.71 55.36 C174.1 38.57, 188.6 22.43, 206.29 1.77 M164.69 55.72 C175.66 41.07, 189.08 29.65, 211.27 2.13 M164.69 55.72 C183.52 36.36, 199.87 15.26, 211.27 2.13 M170.34 55.32 C180.7 41.45, 191.69 27.98, 216.92 1.74 M170.34 55.32 C183.31 40.64, 193.68 27, 216.92 1.74 M175.32 55.68 C186.51 42.41, 200.46 28.69, 221.9 2.1 M175.32 55.68 C187.41 42.77, 198.66 29.62, 221.9 2.1 M180.97 55.29 C194.2 39.75, 206.91 25.77, 227.55 1.7 M180.97 55.29 C192.33 42.53, 203.61 29.38, 227.55 1.7 M185.95 55.65 C194.15 47.11, 205.21 33, 231.22 3.57 M185.95 55.65 C198.86 40.7, 210.77 25.91, 231.22 3.57 M191.6 55.25 C204.33 39.31, 222.1 21.14, 234.9 5.44 M191.6 55.25 C201.49 43, 212.3 31.12, 234.9 5.44 M196.58 55.61 C211.75 41.1, 221.82 25.48, 236.6 9.58 M196.58 55.61 C211.89 38.31, 225.4 20.14, 236.6 9.58 M201.57 55.97 C215.48 40.68, 227.67 25.1, 237 15.22 M201.57 55.97 C212.37 45.16, 221.85 34.76, 237 15.22 M207.21 55.58 C219.66 40.8, 229.44 29.31, 237.39 20.86 M207.21 55.58 C217.15 44.45, 226.48 33.29, 237.39 20.86 M212.2 55.94 C219.99 45.26, 230.51 32.23, 237.13 27.26 M212.2 55.94 C220.44 46.06, 228.68 36.72, 237.13 27.26 M217.85 55.54 C225.59 46.02, 231.61 39.84, 237.53 32.9 M217.85 55.54 C224 47.63, 230.92 39.09, 237.53 32.9 M222.83 55.9 C228.83 51.27, 232.34 45.46, 237.27 39.3 M222.83 55.9 C227.07 51.39, 230.03 47.36, 237.27 39.3 M229.13 54.75 C232.77 50.28, 235.52 48.79, 237 45.7 M229.13 54.75 C231.71 51.55, 233.98 48.24, 237 45.7" stroke="#ced4da" stroke-width="0.5" fill="none"></path><path d="M13.75 0 M13.75 0 C90.8 1.06, 170.7 0.48, 222.25 0 M13.75 0 C69.76 -1.02, 125.89 -0.84, 222.25 0 M222.25 0 C232.16 -1.68, 235.13 6.25, 236 13.75 M222.25 0 C233.57 2.28, 234.93 6.74, 236 13.75 M236 13.75 C234.27 23.38, 237.5 34.67, 236 41.25 M236 13.75 C236.63 21.61, 236.04 29.58, 236 41.25 M236 41.25 C234.35 52.29, 233.41 53.69, 222.25 55 M236 41.25 C237.7 49.09, 231.82 57.2, 222.25 55 M222.25 55 C159.58 53.42, 98.78 54.71, 13.75 55 M222.25 55 C153.39 56.21, 82.63 56.37, 13.75 55 M13.75 55 C5.94 54.42, -1.32 51.53, 0 41.25 M13.75 55 C2.36 56.43, 1.24 51.33, 0 41.25 M0 41.25 C0.62 36.54, -0.6 28.4, 0 13.75 M0 41.25 C0.71 32.75, -0.74 22.8, 0 13.75 M0 13.75 C1.56 5.66, 4.57 1.2, 13.75 0 M0 13.75 C1.85 2.77, 5.24 1.79, 13.75 0" stroke="#000000" stroke-width="1" fill="none"></path></g><g transform="translate(166.34210526315746 306.96645459803375) rotate(0 113.5 12)"><text x="113.5" y="17" font-family="Helvetica, Segoe UI Emoji" font-size="20px" fill="#000000" text-anchor="middle" style="white-space: pre;" direction="ltr">&lt;Action "show-disk-free"&gt;</text></g><g stroke-linecap="round"><g transform="translate(165.56614937401048 248.28224407171825) rotate(0 0.023610014810003577 20.363877962168544)"><path d="M0 0 C0.01 6.79, 0.04 33.94, 0.05 40.73 M0 0 C0.01 6.79, 0.04 33.94, 0.05 40.73" stroke="#000000" stroke-width="1" fill="none"></path></g><g transform="translate(165.56614937401048 248.28224407171825) rotate(0 0.023610014810003577 20.363877962168544)"><path d="M-6.94 21.6 C-5.4 25.82, -3.86 30.03, 0.05 40.73 M-6.94 21.6 C-4.57 28.08, -2.21 34.55, 0.05 40.73" stroke="#000000" stroke-width="1" fill="none"></path></g><g transform="translate(165.56614937401048 248.28224407171825) rotate(0 0.023610014810003577 20.363877962168544)"><path d="M6.99 21.58 C5.46 25.8, 3.93 30.02, 0.05 40.73 M6.99 21.58 C4.64 28.07, 2.29 34.55, 0.05 40.73" stroke="#000000" stroke-width="1" fill="none"></path></g></g><g transform="translate(231.15789473684208 261.8348756506654) rotate(0 35 9.5)"><text x="35" y="13" font-family="Helvetica, Segoe UI Emoji" font-size="16px" fill="#000000" text-anchor="middle" style="white-space: pre;" direction="ltr">run action</text></g><g stroke-linecap="round"><g transform="translate(167.4570604145481 453.1369770580301) rotate(0 -0.3230485203804392 36.348553162545784)"><path d="M0 0 C-0.11 12.12, -0.54 60.58, -0.65 72.7 M0 0 C-0.11 12.12, -0.54 60.58, -0.65 72.7" stroke="#000000" stroke-width="1" fill="none"></path></g><g transform="translate(167.4570604145481 453.1369770580301) rotate(0 -0.3230485203804392 36.348553162545784)"><path d="M-10.66 44.42 C-7.01 54.71, -3.37 65, -0.65 72.7 M-10.66 44.42 C-6.91 54.99, -3.17 65.55, -0.65 72.7" stroke="#000000" stroke-width="1" fill="none"></path></g><g transform="translate(167.4570604145481 453.1369770580301) rotate(0 -0.3230485203804392 36.348553162545784)"><path d="M9.86 44.6 C6.04 54.82, 2.22 65.05, -0.65 72.7 M9.86 44.6 C5.94 55.1, 2.01 65.6, -0.65 72.7" stroke="#000000" stroke-width="1" fill="none"></path></g></g><g stroke-linecap="round"><g transform="translate(163.4618599295958 347.6025766358656) rotate(0 -0.17159662690175992 22.863877962168544)"><path d="M0 0 C-0.06 7.62, -0.29 38.11, -0.34 45.73 M0 0 C-0.06 7.62, -0.29 38.11, -0.34 45.73" stroke="#000000" stroke-width="1" fill="none"></path></g><g transform="translate(163.4618599295958 347.6025766358656) rotate(0 -0.17159662690175992 22.863877962168544)"><path d="M-8 24.18 C-6.34 28.85, -4.68 33.52, -0.34 45.73 M-8 24.18 C-6.03 29.73, -4.06 35.28, -0.34 45.73" stroke="#000000" stroke-width="1" fill="none"></path></g><g transform="translate(163.4618599295958 347.6025766358656) rotate(0 -0.17159662690175992 22.863877962168544)"><path d="M7.64 24.3 C5.91 28.94, 4.18 33.58, -0.34 45.73 M7.64 24.3 C5.58 29.82, 3.53 35.34, -0.34 45.73" stroke="#000000" stroke-width="1" fill="none"></path></g></g><g transform="translate(172.5 352.4664545980341) rotate(0 109.5 19.00000000000003)"><text x="109.5" y="13" font-family="Helvetica, Segoe UI Emoji" font-size="16px" fill="#000000" text-anchor="middle" style="white-space: pre;" direction="ltr">creating AvailabilityZone object</text><text x="109.5" y="32" font-family="Helvetica, Segoe UI Emoji" font-size="16px" fill="#000000" text-anchor="middle" style="white-space: pre;" direction="ltr">with all nodes</text></g><g stroke-linecap="round" transform="translate(160 529.4664545980341) rotate(0 118 27.5)"><path d="M3.66 3.18 C3.66 3.18, 3.66 3.18, 3.66 3.18 M3.66 3.18 C3.66 3.18, 3.66 3.18, 3.66 3.18 M3.4 9.58 C5.45 8.25, 7.02 7.34, 9.3 2.79 M3.4 9.58 C5.9 6.82, 7.94 5.15, 9.3 2.79 M3.14 15.98 C5.37 13.66, 8.64 9.74, 15.6 1.64 M3.14 15.98 C7.42 11.37, 11.24 6.97, 15.6 1.64 M2.88 22.37 C7.99 18.11, 10.24 12.44, 20.59 2 M2.88 22.37 C8.96 14.55, 15.8 7.71, 20.59 2 M3.27 28.02 C11.09 18.58, 19.1 13.22, 26.23 1.6 M3.27 28.02 C9.54 21.83, 15.13 14.47, 26.23 1.6 M3.66 33.66 C9.61 25.37, 20.21 16.12, 31.22 1.96 M3.66 33.66 C8.99 26.88, 14.09 21.39, 31.22 1.96 M3.4 40.06 C14.57 24.57, 29.67 10.38, 36.86 1.57 M3.4 40.06 C15.96 25.28, 27.4 11.75, 36.86 1.57 M1.83 47.97 C17 31.98, 31.62 15.44, 41.85 1.93 M1.83 47.97 C16.12 31.49, 30.87 15.47, 41.85 1.93 M4.19 51.35 C21.07 32.36, 39.71 10.94, 47.49 1.53 M4.19 51.35 C13.49 40.06, 25.3 27.45, 47.49 1.53 M6.56 54.72 C22.43 37.1, 40.17 17.77, 52.48 1.89 M6.56 54.72 C21.33 37.16, 36.08 21.32, 52.48 1.89 M11.54 55.08 C19.54 45.57, 28.59 32.02, 58.12 1.5 M11.54 55.08 C21.68 42.27, 31.7 31.56, 58.12 1.5 M16.53 55.44 C25.75 42.51, 39.12 30.52, 63.11 1.86 M16.53 55.44 C28.71 41.21, 39.76 28.19, 63.11 1.86 M21.52 55.8 C33.59 42.02, 48.46 25.99, 68.75 1.47 M21.52 55.8 C33.5 41.39, 45.55 28.27, 68.75 1.47 M27.16 55.41 C36.32 43.35, 48.27 31.14, 73.74 1.83 M27.16 55.41 C36.31 42.96, 47.99 31.37, 73.74 1.83 M32.15 55.77 C43.52 42.58, 54.77 31.59, 79.38 1.43 M32.15 55.77 C45.62 40.46, 59.61 23.69, 79.38 1.43 M37.79 55.38 C54.41 34.3, 68.7 15.43, 84.37 1.79 M37.79 55.38 C54.98 35.33, 73.07 14.06, 84.37 1.79 M42.78 55.74 C52.94 43.08, 66.01 30.95, 90.01 1.4 M42.78 55.74 C52.86 44.56, 62.67 32.28, 90.01 1.4 M48.42 55.34 C59.74 43.66, 69.8 31.69, 95 1.76 M48.42 55.34 C65.2 36.37, 79.67 17.41, 95 1.76 M53.41 55.7 C67.27 39.44, 81.2 25.19, 100.64 1.36 M53.41 55.7 C70.65 36.88, 87.12 16.87, 100.64 1.36 M59.05 55.31 C76.21 33.34, 92.81 14.71, 105.63 1.72 M59.05 55.31 C70.34 42.15, 82.93 27.67, 105.63 1.72 M64.04 55.67 C76.25 40.63, 87.97 28.54, 110.62 2.08 M64.04 55.67 C81.78 34.71, 98.4 15.12, 110.62 2.08 M69.68 55.27 C84.94 35.18, 101.32 20.07, 116.26 1.69 M69.68 55.27 C84.12 37.93, 97.26 22.72, 116.26 1.69 M74.67 55.63 C88.44 42.01, 99.05 26, 121.25 2.05 M74.67 55.63 C91.84 36.93, 108.65 17.56, 121.25 2.05 M80.31 55.24 C92.62 43.15, 105.51 27.72, 126.89 1.65 M80.31 55.24 C98.84 34.93, 115.94 16.36, 126.89 1.65 M85.3 55.6 C99.3 35.47, 117.92 19.66, 131.88 2.01 M85.3 55.6 C102.69 36.67, 117.79 17.66, 131.88 2.01 M90.94 55.2 C106.76 39.01, 121.43 23.96, 137.52 1.62 M90.94 55.2 C101.65 41.63, 112.74 28.81, 137.52 1.62 M95.93 55.56 C109.85 39.1, 124.88 24.12, 142.51 1.98 M95.93 55.56 C114.54 35.07, 132.58 14.51, 142.51 1.98 M101.57 55.17 C118.14 34.98, 134.83 13.42, 148.15 1.58 M101.57 55.17 C117.03 35.4, 133.62 17.53, 148.15 1.58 M106.56 55.53 C123.54 39.57, 137.67 21, 153.14 1.94 M106.56 55.53 C120.39 40.14, 135.52 22.61, 153.14 1.94 M111.54 55.89 C128.9 33.7, 148.14 13.35, 158.78 1.55 M111.54 55.89 C123.62 41.5, 135.21 27.73, 158.78 1.55 M117.19 55.49 C132.91 37.01, 150.22 15.9, 163.77 1.91 M117.19 55.49 C131.98 38.9, 144.77 23.85, 163.77 1.91 M122.17 55.85 C141.34 35.35, 160.21 13.94, 169.41 1.51 M122.17 55.85 C140.11 34.82, 155.99 16.34, 169.41 1.51 M127.82 55.46 C144.43 37.31, 158.8 20.06, 174.4 1.87 M127.82 55.46 C142.8 37.06, 159.18 17.43, 174.4 1.87 M132.8 55.82 C150.2 32.57, 172.19 11.36, 180.04 1.48 M132.8 55.82 C143.12 45.21, 152.84 33.16, 180.04 1.48 M138.45 55.42 C150.45 38.64, 163.24 26.09, 185.03 1.84 M138.45 55.42 C149.25 42.59, 161.47 29.29, 185.03 1.84 M143.43 55.78 C159.14 33.12, 177.59 14.51, 190.67 1.45 M143.43 55.78 C161.12 37.24, 176.52 17, 190.67 1.45 M149.08 55.39 C160.93 39.74, 177.42 23.03, 195.66 1.81 M149.08 55.39 C164.59 36.5, 181.44 18.14, 195.66 1.81 M154.06 55.75 C170.64 37.04, 185.63 23.21, 200.64 2.17 M154.06 55.75 C168.1 39.1, 181.41 24.18, 200.64 2.17 M159.71 55.36 C175.49 37.4, 193.26 17.83, 206.29 1.77 M159.71 55.36 C169.07 43.75, 178.91 33.33, 206.29 1.77 M164.69 55.72 C176.39 41.5, 192.45 24.15, 211.27 2.13 M164.69 55.72 C182.7 36.19, 199.83 16.54, 211.27 2.13 M170.34 55.32 C180.22 44.91, 192.22 32.46, 216.92 1.74 M170.34 55.32 C185.49 38.15, 201.07 19.31, 216.92 1.74 M175.32 55.68 C187.17 42.15, 196.32 32.49, 221.9 2.1 M175.32 55.68 C187.67 41.28, 199.06 27.58, 221.9 2.1 M180.97 55.29 C194.75 42.13, 205.68 27.19, 227.55 1.7 M180.97 55.29 C192.32 42.31, 204.48 28.77, 227.55 1.7 M185.95 55.65 C199.42 39.29, 215.38 20.02, 231.22 3.57 M185.95 55.65 C196.98 43.36, 210.4 29.47, 231.22 3.57 M191.6 55.25 C208.45 35.74, 227.19 15.82, 234.9 5.44 M191.6 55.25 C201.43 43.15, 211.89 32.55, 234.9 5.44 M196.58 55.61 C206.81 46.01, 218.17 33.86, 236.6 9.58 M196.58 55.61 C204.77 46.19, 214.31 35.75, 236.6 9.58 M201.57 55.97 C211.75 46, 220.81 33.69, 237 15.22 M201.57 55.97 C216.64 39.9, 229.57 23.92, 237 15.22 M207.21 55.58 C218.3 45.63, 228.23 35.21, 237.39 20.86 M207.21 55.58 C218.31 42.64, 230.84 27.67, 237.39 20.86 M212.2 55.94 C221.01 48.55, 227.39 39.6, 237.13 27.26 M212.2 55.94 C220.96 44.65, 231.28 32.93, 237.13 27.26 M217.85 55.54 C225.91 49.79, 229.08 39.82, 237.53 32.9 M217.85 55.54 C221.39 51.81, 226.61 47.03, 237.53 32.9 M222.83 55.9 C229.17 52.1, 232.34 45.44, 237.27 39.3 M222.83 55.9 C225.99 51.93, 230.05 46.42, 237.27 39.3 M229.13 54.75 C232.78 50.29, 235.05 49.34, 237 45.7 M229.13 54.75 C231.58 52.46, 233.53 49.07, 237 45.7" stroke="#ced4da" stroke-width="0.5" fill="none"></path><path d="M13.75 0 M13.75 0 C73.55 -0.27, 133.68 -0.35, 222.25 0 M13.75 0 C67.91 0.22, 121.77 -0.27, 222.25 0 M222.25 0 C231.72 1.84, 237.95 3.46, 236 13.75 M222.25 0 C231.68 1.87, 234.94 2.99, 236 13.75 M236 13.75 C234.22 21.85, 236.77 29.23, 236 41.25 M236 13.75 C236.34 19.91, 235.36 27.25, 236 41.25 M236 41.25 C234.94 51.99, 230.1 56.88, 222.25 55 M236 41.25 C237.9 50.29, 233.62 54.89, 222.25 55 M222.25 55 C141.44 55.91, 62.28 56.24, 13.75 55 M222.25 55 C179.68 56.32, 139.46 55.86, 13.75 55 M13.75 55 C5.64 56.71, 1.29 50.08, 0 41.25 M13.75 55 C3.31 53.93, 0.52 49.99, 0 41.25 M0 41.25 C0.84 32.47, 0.41 24.64, 0 13.75 M0 41.25 C-0.25 32.08, 0.01 24.69, 0 13.75 M0 13.75 C0.17 5.97, 5.58 0.12, 13.75 0 M0 13.75 C-1.17 4.22, 4.16 -1.35, 13.75 0" stroke="#000000" stroke-width="1" fill="none"></path></g><g transform="translate(250.5 545.4401388085604) rotate(0 28.5 12)"><text x="28.5" y="17" font-family="Helvetica, Segoe UI Emoji" font-size="20px" fill="#000000" text-anchor="middle" style="white-space: pre;" direction="ltr">parent</text></g><g transform="translate(143.5 465.46645459803415) rotate(0 144.5 19)"><text x="144.5" y="13" font-family="Helvetica, Segoe UI Emoji" font-size="16px" fill="#000000" text-anchor="middle" style="white-space: pre;" direction="ltr">finding parent for node with name</text><text x="144.5" y="32" font-family="Helvetica, Segoe UI Emoji" font-size="16px" fill="#000000" text-anchor="middle" style="white-space: pre;" direction="ltr">`&lt;unit "ceph-osd/0"&gt;.machine.hostname`</text></g><g stroke-linecap="round"><g transform="translate(397.1715966269021 422.1025766358656) rotate(0 67.57840337309824 -26.681718394797713)"><path d="M0 0 C22.53 -8.89, 112.63 -44.47, 135.16 -53.36 M0 0 C22.53 -8.89, 112.63 -44.47, 135.16 -53.36" stroke="#000000" stroke-width="1" fill="none"></path></g><g transform="translate(397.1715966269021 422.1025766358656) rotate(0 67.57840337309824 -26.681718394797713)"><path d="M112.7 -33.47 C119.71 -39.68, 126.72 -45.88, 135.16 -53.36 M112.7 -33.47 C120.4 -40.29, 128.1 -47.11, 135.16 -53.36" stroke="#000000" stroke-width="1" fill="none"></path></g><g transform="translate(397.1715966269021 422.1025766358656) rotate(0 67.57840337309824 -26.681718394797713)"><path d="M105.17 -52.55 C114.53 -52.81, 123.88 -53.06, 135.16 -53.36 M105.17 -52.55 C115.45 -52.83, 125.73 -53.11, 135.16 -53.36" stroke="#000000" stroke-width="1" fill="none"></path></g></g><g stroke-linecap="round"><g transform="translate(404.0159298077974 525.0096559708728) rotate(0 66.65623678265058 -78.16229619118093)"><path d="M0 0 C22.22 -26.05, 111.09 -130.27, 133.31 -156.32 M0 0 C22.22 -26.05, 111.09 -130.27, 133.31 -156.32" stroke="#000000" stroke-width="1" fill="none"></path></g><g transform="translate(404.0159298077974 525.0096559708728) rotate(0 66.65623678265058 -78.16229619118093)"><path d="M122.83 -128.22 C126.71 -138.64, 130.6 -149.06, 133.31 -156.32 M122.83 -128.22 C124.93 -133.85, 127.03 -139.49, 133.31 -156.32" stroke="#000000" stroke-width="1" fill="none"></path></g><g transform="translate(404.0159298077974 525.0096559708728) rotate(0 66.65623678265058 -78.16229619118093)"><path d="M107.21 -141.53 C116.89 -147.02, 126.57 -152.5, 133.31 -156.32 M107.21 -141.53 C112.45 -144.5, 117.68 -147.47, 133.31 -156.32" stroke="#000000" stroke-width="1" fill="none"></path></g></g><g transform="translate(574.6282051282049 384.79304029304046) rotate(0 197.5 9.5)"><text x="197.5" y="13" font-family="Helvetica, Segoe UI Emoji" font-size="16px" fill="#000000" text-anchor="middle" style="white-space: pre;" direction="ltr">parent.kb_avail &lt;= nodes[&lt;Unit "ceph-osd/0"&gt;].kb_used</text></g></svg>